<svg xmlns="http://www.w3.org/2000/svg" xmlns:xlink="http://www.w3.org/1999/xlink" preserveAspectRatio="xMidYMid" width="114" height="114" viewBox="0 0 114 114">
  <defs>
    <style>

      .cls-3 {
        fill: #333333;
      }

      .cls-4 {
        fill: #ffb900;
      }
    </style>
  </defs>
  <g id="дизайнsvg">
    <path d="M87.887,51.210 C87.887,51.210 93.929,45.168 93.929,45.168 C93.929,45.168 80.929,32.168 80.929,32.168 C80.929,32.168 74.887,38.210 74.887,38.210 C72.512,36.813 69.950,35.700 67.259,34.856 C67.259,34.856 67.259,3.677 67.259,3.677 C67.259,3.677 70.936,3.677 70.936,3.677 C70.936,3.677 70.936,0.000 70.936,0.000 C70.936,0.000 41.515,0.000 41.515,0.000 C41.515,0.000 41.515,3.677 41.515,3.677 C41.515,3.677 45.192,3.677 45.192,3.677 C45.192,3.677 45.192,34.855 45.192,34.855 C42.500,35.700 39.937,36.813 37.563,38.208 C37.563,38.208 31.521,32.166 31.521,32.166 C31.521,32.166 18.522,45.166 18.522,45.166 C18.522,45.166 24.564,51.208 24.564,51.208 C22.802,54.183 21.482,57.357 20.625,60.676 C20.625,60.676 12.095,60.676 12.095,60.676 C12.095,60.676 12.095,79.063 12.095,79.063 C12.095,79.063 20.625,79.063 20.625,79.063 C21.482,82.383 22.802,85.555 24.562,88.530 C24.562,88.530 18.522,94.570 18.522,94.570 C18.522,94.570 31.521,107.572 31.521,107.572 C31.521,107.572 37.563,101.530 37.563,101.530 C40.538,103.291 43.712,104.612 47.031,105.468 C47.031,105.468 47.031,114.000 47.031,114.000 C47.031,114.000 65.418,114.000 65.418,114.000 C65.418,114.000 65.418,105.470 65.418,105.470 C68.739,104.613 71.911,103.293 74.886,101.532 C74.886,101.532 80.928,107.574 80.928,107.574 C80.928,107.574 93.927,94.572 93.927,94.572 C93.927,94.572 87.887,88.532 87.887,88.532 C89.647,85.557 90.967,82.383 91.824,79.065 C91.824,79.065 100.354,79.065 100.354,79.065 C100.354,79.065 100.354,60.677 100.354,60.677 C100.354,60.677 91.824,60.677 91.824,60.677 C90.969,57.357 89.649,54.185 87.887,51.210 ZM47.687,47.566 C47.687,47.566 48.870,47.113 48.870,47.113 C48.870,47.113 48.870,3.677 48.870,3.677 C48.870,3.677 63.579,3.677 63.579,3.677 C63.579,3.677 63.579,47.113 63.579,47.113 C63.579,47.113 64.762,47.566 64.762,47.566 C69.603,49.421 73.595,52.795 76.301,57.000 C76.301,57.000 36.148,57.000 36.148,57.000 C38.854,52.795 42.846,49.421 47.687,47.566 ZM78.247,60.677 C79.457,63.546 80.128,66.661 80.128,69.871 C80.128,83.051 69.404,93.774 56.224,93.774 C43.045,93.774 32.321,83.051 32.321,69.871 C32.321,66.661 32.992,63.546 34.202,60.677 C34.202,60.677 78.247,60.677 78.247,60.677 ZM96.676,75.387 C96.676,75.387 88.884,75.387 88.884,75.387 C88.884,75.387 88.573,76.840 88.573,76.840 C87.736,80.732 86.203,84.423 84.015,87.806 C84.015,87.806 83.208,89.054 83.208,89.054 C83.208,89.054 88.731,94.574 88.731,94.574 C88.731,94.574 80.931,102.376 80.931,102.376 C80.931,102.376 75.410,96.854 75.410,96.854 C75.410,96.854 74.161,97.659 74.161,97.659 C70.778,99.847 67.088,101.381 63.195,102.218 C63.195,102.218 61.741,102.530 61.741,102.530 C61.741,102.530 61.741,110.323 61.741,110.323 C61.741,110.323 50.708,110.323 50.708,110.323 C50.708,110.323 50.708,102.530 50.708,102.530 C50.708,102.530 49.256,102.219 49.256,102.219 C45.363,101.383 41.673,99.849 38.290,97.661 C38.290,97.661 37.041,96.856 37.041,96.856 C37.041,96.856 31.520,102.378 31.520,102.378 C31.520,102.378 23.720,94.576 23.720,94.576 C23.720,94.576 29.243,89.056 29.243,89.056 C29.243,89.056 28.436,87.808 28.436,87.808 C26.248,84.424 24.714,80.734 23.878,76.842 C23.878,76.842 23.565,75.387 23.565,75.387 C23.565,75.387 15.773,75.387 15.773,75.387 C15.773,75.387 15.773,64.355 15.773,64.355 C15.773,64.355 23.565,64.355 23.565,64.355 C23.565,64.355 23.876,62.902 23.876,62.902 C24.713,59.010 26.246,55.319 28.434,51.936 C28.434,51.936 29.240,50.688 29.240,50.688 C29.240,50.688 23.718,45.166 23.718,45.166 C23.718,45.166 31.518,37.366 31.518,37.366 C31.518,37.366 37.039,42.888 37.039,42.888 C37.039,42.888 38.288,42.083 38.288,42.083 C40.421,40.704 42.736,39.576 45.190,38.714 C45.190,38.714 45.190,44.618 45.190,44.618 C35.241,48.974 28.642,58.966 28.642,69.871 C28.642,85.079 41.015,97.452 56.223,97.452 C71.431,97.452 83.803,85.079 83.803,69.871 C83.803,58.964 77.204,48.974 67.255,44.618 C67.255,44.618 67.255,38.714 67.255,38.714 C69.710,39.576 72.025,40.702 74.157,42.083 C74.157,42.083 75.406,42.888 75.406,42.888 C75.406,42.888 80.928,37.366 80.928,37.366 C80.928,37.366 88.727,45.166 88.727,45.166 C88.727,45.166 83.206,50.688 83.206,50.688 C83.206,50.688 84.011,51.936 84.011,51.936 C86.199,55.319 87.733,59.010 88.569,62.902 C88.569,62.902 88.884,64.355 88.884,64.355 C88.884,64.355 96.676,64.355 96.676,64.355 C96.676,64.355 96.676,75.387 96.676,75.387 Z" id="path-1" class="cls-3" fill-rule="evenodd"/>
    <path d="M110.323,49.645 C110.323,49.645 110.323,45.968 110.323,45.968 C110.323,45.968 114.000,45.968 114.000,45.968 C114.000,45.968 114.000,49.645 114.000,49.645 C114.000,49.645 110.323,49.645 110.323,49.645 ZM110.323,53.323 C110.323,53.323 106.645,53.323 106.645,53.323 C106.645,53.323 106.645,49.645 106.645,49.645 C106.645,49.645 110.323,49.645 110.323,49.645 C110.323,49.645 110.323,53.323 110.323,53.323 ZM102.968,49.645 C102.968,49.645 102.968,45.968 102.968,45.968 C102.968,45.968 106.645,45.968 106.645,45.968 C106.645,45.968 106.645,49.645 106.645,49.645 C106.645,49.645 102.968,49.645 102.968,49.645 ZM106.645,42.290 C106.645,42.290 110.323,42.290 110.323,42.290 C110.323,42.290 110.323,45.968 110.323,45.968 C110.323,45.968 106.645,45.968 106.645,45.968 C106.645,45.968 106.645,42.290 106.645,42.290 ZM91.935,9.194 C91.935,9.194 97.452,9.194 97.452,9.194 C97.452,9.194 97.452,12.871 97.452,12.871 C97.452,12.871 91.935,12.871 91.935,12.871 C91.935,12.871 91.935,9.194 91.935,9.194 ZM91.935,18.387 C91.935,18.387 88.258,18.387 88.258,18.387 C88.258,18.387 88.258,12.871 88.258,12.871 C88.258,12.871 91.935,12.871 91.935,12.871 C91.935,12.871 91.935,18.387 91.935,18.387 ZM82.742,12.871 C82.742,12.871 82.742,9.194 82.742,9.194 C82.742,9.194 88.258,9.194 88.258,9.194 C88.258,9.194 88.258,12.871 88.258,12.871 C88.258,12.871 82.742,12.871 82.742,12.871 ZM88.258,3.677 C88.258,3.677 91.935,3.677 91.935,3.677 C91.935,3.677 91.935,9.194 91.935,9.194 C91.935,9.194 88.258,9.194 88.258,9.194 C88.258,9.194 88.258,3.677 88.258,3.677 ZM71.710,73.548 C68.668,73.548 66.194,71.073 66.194,68.032 C66.194,64.991 68.668,62.516 71.710,62.516 C74.751,62.516 77.226,64.991 77.226,68.032 C77.226,71.073 74.751,73.548 71.710,73.548 ZM71.710,66.194 C70.695,66.194 69.871,67.017 69.871,68.032 C69.871,69.047 70.695,69.871 71.710,69.871 C72.725,69.871 73.548,69.047 73.548,68.032 C73.548,67.017 72.725,66.194 71.710,66.194 ZM49.645,86.419 C44.576,86.419 40.452,82.295 40.452,77.226 C40.452,72.156 44.576,68.032 49.645,68.032 C54.714,68.032 58.839,72.156 58.839,77.226 C58.839,82.295 54.714,86.419 49.645,86.419 ZM49.645,71.710 C46.604,71.710 44.129,74.185 44.129,77.226 C44.129,80.267 46.604,82.742 49.645,82.742 C52.686,82.742 55.161,80.267 55.161,77.226 C55.161,74.185 52.686,71.710 49.645,71.710 ZM27.581,22.065 C27.581,22.065 31.258,22.065 31.258,22.065 C31.258,22.065 31.258,25.742 31.258,25.742 C31.258,25.742 27.581,25.742 27.581,25.742 C27.581,25.742 27.581,22.065 27.581,22.065 ZM27.581,29.419 C27.581,29.419 23.903,29.419 23.903,29.419 C23.903,29.419 23.903,25.742 23.903,25.742 C23.903,25.742 27.581,25.742 27.581,25.742 C27.581,25.742 27.581,29.419 27.581,29.419 ZM20.226,25.742 C20.226,25.742 20.226,22.065 20.226,22.065 C20.226,22.065 23.903,22.065 23.903,22.065 C23.903,22.065 23.903,25.742 23.903,25.742 C23.903,25.742 20.226,25.742 20.226,25.742 ZM23.903,18.387 C23.903,18.387 27.581,18.387 27.581,18.387 C27.581,18.387 27.581,22.065 27.581,22.065 C27.581,22.065 23.903,22.065 23.903,22.065 C23.903,22.065 23.903,18.387 23.903,18.387 ZM12.871,47.806 C12.871,47.806 16.548,47.806 16.548,47.806 C16.548,47.806 16.548,51.484 16.548,51.484 C16.548,51.484 12.871,51.484 12.871,51.484 C12.871,51.484 12.871,47.806 12.871,47.806 ZM12.871,55.161 C12.871,55.161 9.194,55.161 9.194,55.161 C9.194,55.161 9.194,51.484 9.194,51.484 C9.194,51.484 12.871,51.484 12.871,51.484 C12.871,51.484 12.871,55.161 12.871,55.161 ZM5.516,51.484 C5.516,51.484 5.516,47.806 5.516,47.806 C5.516,47.806 9.194,47.806 9.194,47.806 C9.194,47.806 9.194,51.484 9.194,51.484 C9.194,51.484 5.516,51.484 5.516,51.484 ZM9.194,44.129 C9.194,44.129 12.871,44.129 12.871,44.129 C12.871,44.129 12.871,47.806 12.871,47.806 C12.871,47.806 9.194,47.806 9.194,47.806 C9.194,47.806 9.194,44.129 9.194,44.129 ZM9.194,5.516 C9.194,5.516 14.710,5.516 14.710,5.516 C14.710,5.516 14.710,9.194 14.710,9.194 C14.710,9.194 9.194,9.194 9.194,9.194 C9.194,9.194 9.194,5.516 9.194,5.516 ZM9.194,14.710 C9.194,14.710 5.516,14.710 5.516,14.710 C5.516,14.710 5.516,9.194 5.516,9.194 C5.516,9.194 9.194,9.194 9.194,9.194 C9.194,9.194 9.194,14.710 9.194,14.710 ZM0.000,9.194 C0.000,9.194 0.000,5.516 0.000,5.516 C0.000,5.516 5.516,5.516 5.516,5.516 C5.516,5.516 5.516,9.194 5.516,9.194 C5.516,9.194 0.000,9.194 0.000,9.194 ZM5.516,0.000 C5.516,0.000 9.194,0.000 9.194,0.000 C9.194,0.000 9.194,5.516 9.194,5.516 C9.194,5.516 5.516,5.516 5.516,5.516 C5.516,5.516 5.516,0.000 5.516,0.000 Z" id="path-2" class="cls-4" fill-rule="evenodd"/>
  </g>
</svg>
