<svg xmlns="http://www.w3.org/2000/svg" xmlns:xlink="http://www.w3.org/1999/xlink" preserveAspectRatio="xMidYMid" width="105" height="104" viewBox="0 0 105 104">
  <defs>
    <style>

      .cls-3 {
        fill: #333333;
      }

      .cls-4 {
        fill: #ffb900;
      }
    </style>
  </defs>
  <g id="разработка">
    <path d="M103.792,72.625 C103.619,72.799 103.446,72.799 103.274,72.799 C102.756,72.799 102.238,72.625 101.892,72.105 C101.892,72.105 89.117,55.465 89.117,55.465 C89.117,55.465 80.831,55.465 80.831,55.465 C80.831,55.465 80.831,51.997 80.831,51.997 C80.831,51.997 89.981,51.997 89.981,51.997 C90.498,51.997 91.016,52.171 91.362,52.692 C91.362,52.692 101.547,66.038 101.547,66.038 C101.547,66.038 101.547,45.065 101.547,45.065 C101.547,45.065 105.000,45.065 105.000,45.065 C105.000,45.065 105.000,71.065 105.000,71.065 C105.000,71.758 104.482,72.451 103.792,72.625 ZM103.274,31.198 C103.274,31.198 98.440,31.198 98.440,31.198 C98.267,31.371 98.267,31.718 98.095,31.891 C98.095,31.891 101.375,35.184 101.375,35.184 C101.720,35.532 101.892,35.879 101.892,36.398 C101.892,36.919 101.720,37.265 101.375,37.611 C101.375,37.611 94.124,44.892 94.124,44.892 C93.433,45.585 92.397,45.585 91.707,44.892 C91.707,44.892 88.427,41.599 88.427,41.599 C88.254,41.773 87.909,41.773 87.736,41.945 C87.736,41.945 87.736,46.798 87.736,46.798 C87.736,47.837 87.046,48.532 86.010,48.532 C86.010,48.532 75.652,48.532 75.652,48.532 C74.616,48.532 73.925,47.837 73.925,46.798 C73.925,46.798 73.925,41.773 73.925,41.773 C73.753,41.599 73.580,41.599 73.235,41.425 C73.235,41.425 69.954,44.718 69.954,44.718 C69.264,45.411 68.228,45.411 67.538,44.718 C67.538,44.718 60.287,37.438 60.287,37.438 C59.942,37.092 59.769,36.745 59.769,36.225 C59.769,35.706 59.942,35.358 60.287,35.012 C60.287,35.012 63.567,31.718 63.567,31.718 C63.394,31.545 63.394,31.198 63.222,31.024 C63.222,31.024 58.388,31.024 58.388,31.024 C57.352,31.024 56.662,30.331 56.662,29.292 C56.662,29.292 56.662,18.891 56.662,18.891 C56.662,17.852 57.352,17.158 58.388,17.158 C58.388,17.158 63.394,17.158 63.394,17.158 C63.394,17.158 63.567,16.984 63.567,16.638 C63.567,16.638 60.287,13.345 60.287,13.345 C59.942,12.998 59.769,12.651 59.769,12.132 C59.769,11.611 59.942,11.265 60.287,10.919 C60.287,10.919 67.538,3.638 67.538,3.638 C68.228,2.944 69.264,2.944 69.954,3.638 C69.954,3.638 73.235,6.932 73.235,6.932 C73.407,6.758 73.753,6.758 73.925,6.585 C73.925,6.585 73.925,1.731 73.925,1.731 C73.925,0.691 74.616,-0.002 75.652,-0.002 C75.652,-0.002 86.010,-0.002 86.010,-0.002 C87.046,-0.002 87.736,0.691 87.736,1.731 C87.736,1.731 87.736,6.758 87.736,6.758 C87.909,6.758 88.081,6.932 88.427,6.932 C88.427,6.932 91.707,3.638 91.707,3.638 C92.397,2.944 93.433,2.944 94.124,3.638 C94.124,3.638 101.375,10.919 101.375,10.919 C101.720,11.265 101.892,11.611 101.892,12.132 C101.892,12.651 101.720,12.998 101.375,13.345 C101.375,13.345 98.095,16.638 98.095,16.638 C98.267,16.811 98.267,17.158 98.440,17.331 C98.440,17.331 103.274,17.331 103.274,17.331 C104.309,17.331 105.000,18.025 105.000,19.065 C105.000,19.065 105.000,29.465 105.000,29.465 C105.000,30.505 104.309,31.198 103.274,31.198 ZM101.547,20.798 C101.547,20.798 97.231,20.798 97.231,20.798 C96.368,20.798 95.678,20.279 95.505,19.412 C95.332,19.065 94.814,17.677 94.642,17.331 C94.469,16.984 94.296,16.638 94.296,16.291 C94.296,15.771 94.469,15.425 94.814,15.078 C94.814,15.078 97.749,12.132 97.749,12.132 C97.749,12.132 92.915,7.278 92.915,7.278 C92.915,7.278 89.981,10.225 89.981,10.225 C89.635,10.572 89.290,10.745 88.772,10.745 C88.081,10.745 85.147,9.531 84.801,9.011 C84.456,8.665 84.283,8.318 84.283,7.798 C84.283,7.798 84.283,3.465 84.283,3.465 C84.283,3.465 77.378,3.465 77.378,3.465 C77.378,3.465 77.378,7.798 77.378,7.798 C77.378,8.665 76.860,9.357 75.997,9.531 C75.652,9.704 74.270,10.225 73.925,10.398 C73.580,10.572 73.235,10.745 72.889,10.745 C72.371,10.745 72.026,10.572 71.681,10.225 C71.681,10.225 68.746,7.278 68.746,7.278 C68.746,7.278 63.912,12.132 63.912,12.132 C63.912,12.132 66.847,15.078 66.847,15.078 C67.192,15.425 67.365,15.771 67.365,16.291 C67.365,16.984 66.156,19.932 65.639,20.279 C65.293,20.625 64.948,20.798 64.430,20.798 C64.430,20.798 60.114,20.798 60.114,20.798 C60.114,20.798 60.114,27.732 60.114,27.732 C60.114,27.732 64.430,27.732 64.430,27.732 C65.293,27.732 65.984,28.252 66.156,29.118 C66.329,29.465 66.847,30.852 67.020,31.198 C67.192,31.545 67.365,31.891 67.365,32.237 C67.365,32.758 67.192,33.105 66.847,33.451 C66.847,33.451 63.912,36.398 63.912,36.398 C63.912,36.398 68.746,41.251 68.746,41.251 C68.746,41.251 71.681,38.305 71.681,38.305 C72.026,37.958 72.371,37.785 72.889,37.785 C73.580,37.785 76.515,38.998 76.860,39.518 C77.205,39.864 77.378,40.212 77.378,40.731 C77.378,40.731 77.378,45.065 77.378,45.065 C77.378,45.065 84.283,45.065 84.283,45.065 C84.283,45.065 84.283,40.731 84.283,40.731 C84.283,39.864 84.801,39.171 85.665,38.998 C86.010,38.824 87.391,38.305 87.736,38.131 C88.081,37.958 88.427,37.785 88.772,37.785 C89.290,37.785 89.635,37.958 89.981,38.305 C89.981,38.305 92.915,41.251 92.915,41.251 C92.915,41.251 97.749,36.398 97.749,36.398 C97.749,36.398 94.814,33.451 94.814,33.451 C94.469,33.105 94.296,32.758 94.296,32.237 C94.296,31.891 94.469,31.545 94.642,31.198 C94.814,30.852 95.505,29.465 95.505,29.118 C95.678,28.425 96.368,27.732 97.231,27.732 C97.231,27.732 101.547,27.732 101.547,27.732 C101.547,27.732 101.547,20.798 101.547,20.798 ZM80.831,31.198 C77.033,31.198 73.925,28.079 73.925,24.265 C73.925,20.452 77.033,17.331 80.831,17.331 C84.629,17.331 87.736,20.452 87.736,24.265 C87.736,28.079 84.629,31.198 80.831,31.198 ZM80.831,20.798 C78.932,20.798 77.378,22.358 77.378,24.265 C77.378,26.171 78.932,27.732 80.831,27.732 C82.730,27.732 84.283,26.171 84.283,24.265 C84.283,22.358 82.730,20.798 80.831,20.798 ZM22.134,6.932 C22.134,6.932 18.681,6.932 18.681,6.932 C18.681,6.932 18.681,1.731 18.681,1.731 C18.681,0.691 19.372,-0.002 20.408,-0.002 C20.408,-0.002 61.841,-0.002 61.841,-0.002 C61.841,-0.002 61.841,3.465 61.841,3.465 C61.841,3.465 22.134,3.465 22.134,3.465 C22.134,3.465 22.134,6.932 22.134,6.932 ZM10.049,60.665 C10.049,60.665 16.955,60.665 16.955,60.665 C16.955,60.665 16.955,64.131 16.955,64.131 C16.955,64.131 10.049,64.131 10.049,64.131 C10.049,64.131 10.049,60.665 10.049,60.665 ZM4.870,97.238 C4.870,97.238 15.056,83.891 15.056,83.891 C15.401,83.371 15.919,83.198 16.437,83.198 C16.437,83.198 25.587,83.198 25.587,83.198 C25.587,83.198 25.587,86.665 25.587,86.665 C25.587,86.665 17.300,86.665 17.300,86.665 C17.300,86.665 4.525,103.305 4.525,103.305 C4.180,103.825 3.662,103.997 3.144,103.997 C2.971,103.997 2.798,103.997 2.626,103.825 C1.935,103.651 1.417,102.958 1.417,102.265 C1.417,102.265 1.417,32.931 1.417,32.931 C1.417,31.891 2.108,31.198 3.144,31.198 C3.144,31.198 13.502,31.198 13.502,31.198 C13.502,31.198 13.502,34.666 13.502,34.666 C13.502,34.666 4.870,34.666 4.870,34.666 C4.870,34.666 4.870,97.238 4.870,97.238 ZM22.134,51.997 C22.134,51.997 25.587,51.997 25.587,51.997 C25.587,51.997 25.587,55.465 25.587,55.465 C25.587,55.465 20.408,55.465 20.408,55.465 C19.372,55.465 18.681,54.771 18.681,53.732 C18.681,53.732 18.681,27.732 18.681,27.732 C18.681,27.732 22.134,27.732 22.134,27.732 C22.134,27.732 22.134,51.997 22.134,51.997 ZM13.502,77.999 C13.502,77.999 10.049,77.999 10.049,77.999 C10.049,77.999 10.049,74.532 10.049,74.532 C10.049,74.532 13.502,74.532 13.502,74.532 C13.502,74.532 13.502,77.999 13.502,77.999 ZM32.492,71.065 C32.492,71.065 13.502,71.065 13.502,71.065 C13.502,71.065 13.502,67.598 13.502,67.598 C13.502,67.598 32.492,67.598 32.492,67.598 C32.492,67.598 32.492,71.065 32.492,71.065 ZM16.955,74.532 C16.955,74.532 30.766,74.532 30.766,74.532 C31.802,74.532 32.492,75.225 32.492,76.264 C32.492,76.264 32.492,83.198 32.492,83.198 C32.492,83.198 73.925,83.198 73.925,83.198 C73.925,83.198 73.925,56.852 73.925,56.852 C73.925,56.852 54.072,70.718 54.072,70.718 C53.899,70.892 53.554,71.065 53.209,71.065 C52.863,71.065 52.518,70.892 52.173,70.718 C52.173,70.718 32.492,57.026 32.492,57.026 C32.492,57.026 32.492,62.398 32.492,62.398 C32.492,63.438 31.802,64.131 30.766,64.131 C30.766,64.131 20.408,64.131 20.408,64.131 C20.408,64.131 20.408,60.665 20.408,60.665 C20.408,60.665 29.039,60.665 29.039,60.665 C29.039,60.665 29.039,53.732 29.039,53.732 C29.039,52.692 29.730,51.997 30.766,51.997 C30.766,51.997 75.652,51.997 75.652,51.997 C76.687,51.997 77.378,52.692 77.378,53.732 C77.378,53.732 77.378,84.932 77.378,84.932 C77.378,85.972 76.687,86.665 75.652,86.665 C75.652,86.665 30.766,86.665 30.766,86.665 C29.730,86.665 29.039,85.972 29.039,84.932 C29.039,84.932 29.039,77.999 29.039,77.999 C29.039,77.999 16.955,77.999 16.955,77.999 C16.955,77.999 16.955,74.532 16.955,74.532 ZM36.118,55.465 C36.118,55.465 53.209,67.252 53.209,67.252 C53.209,67.252 70.127,55.465 70.127,55.465 C70.127,55.465 36.118,55.465 36.118,55.465 ZM84.283,60.665 C84.283,60.665 87.736,60.665 87.736,60.665 C87.736,60.665 87.736,84.932 87.736,84.932 C87.736,85.972 87.046,86.665 86.010,86.665 C86.010,86.665 80.831,86.665 80.831,86.665 C80.831,86.665 80.831,83.198 80.831,83.198 C80.831,83.198 84.283,83.198 84.283,83.198 C84.283,83.198 84.283,60.665 84.283,60.665 Z" id="path-1" class="cls-3" fill-rule="evenodd"/>
    <path d="M34.526,46.489 C34.526,46.489 34.526,43.023 34.526,43.023 C34.526,43.023 53.516,43.023 53.516,43.023 C53.516,43.023 53.516,46.489 53.516,46.489 C53.516,46.489 34.526,46.489 34.526,46.489 ZM25.894,36.089 C25.894,36.089 53.516,36.089 53.516,36.089 C53.516,36.089 53.516,39.557 53.516,39.557 C53.516,39.557 25.894,39.557 25.894,39.557 C25.894,39.557 25.894,36.089 25.894,36.089 ZM25.894,29.156 C25.894,29.156 53.516,29.156 53.516,29.156 C53.516,29.156 53.516,32.623 53.516,32.623 C53.516,32.623 25.894,32.623 25.894,32.623 C25.894,32.623 25.894,29.156 25.894,29.156 ZM43.158,22.223 C43.158,22.223 53.516,22.223 53.516,22.223 C53.516,22.223 53.516,25.689 53.516,25.689 C53.516,25.689 43.158,25.689 43.158,25.689 C43.158,25.689 43.158,22.223 43.158,22.223 ZM43.158,15.290 C43.158,15.290 53.516,15.290 53.516,15.290 C53.516,15.290 53.516,18.756 53.516,18.756 C53.516,18.756 43.158,18.756 43.158,18.756 C43.158,18.756 43.158,15.290 43.158,15.290 ZM43.158,8.356 C43.158,8.356 53.516,8.356 53.516,8.356 C53.516,8.356 53.516,11.823 53.516,11.823 C53.516,11.823 43.158,11.823 43.158,11.823 C43.158,11.823 43.158,8.356 43.158,8.356 ZM8.112,27.943 C8.112,27.943 5.696,30.370 5.696,30.370 C5.696,30.370 0.516,25.169 0.516,25.169 C-0.174,24.476 -0.174,23.436 0.516,22.743 C0.516,22.743 5.696,17.543 5.696,17.543 C5.696,17.543 8.112,19.969 8.112,19.969 C8.112,19.969 5.868,22.223 5.868,22.223 C5.868,22.223 32.800,22.223 32.800,22.223 C32.800,22.223 32.800,25.689 32.800,25.689 C32.800,25.689 5.868,25.689 5.868,25.689 C5.868,25.689 8.112,27.943 8.112,27.943 ZM27.103,19.969 C27.103,19.969 24.686,17.543 24.686,17.543 C24.686,17.543 26.930,15.290 26.930,15.290 C26.930,15.290 -0.001,15.290 -0.001,15.290 C-0.001,15.290 -0.001,11.823 -0.001,11.823 C-0.001,11.823 26.930,11.823 26.930,11.823 C26.930,11.823 24.686,9.570 24.686,9.570 C24.686,9.570 27.103,7.142 27.103,7.142 C27.103,7.142 32.282,12.343 32.282,12.343 C32.972,13.036 32.972,14.076 32.282,14.769 C32.282,14.769 27.103,19.969 27.103,19.969 ZM31.073,46.489 C31.073,46.489 25.894,46.489 25.894,46.489 C25.894,46.489 25.894,43.023 25.894,43.023 C25.894,43.023 31.073,43.023 31.073,43.023 C31.073,43.023 31.073,46.489 31.073,46.489 Z" id="path-2" class="cls-4" fill-rule="evenodd"/>
  </g>
</svg>
