<svg xmlns="http://www.w3.org/2000/svg" width="11" height="16" viewBox="0 0 11 16">
  <defs>
    <style>
      .cls-1 {
        fill: #fff;
        fill-rule: evenodd;
      }
    </style>
  </defs>
  <path id="Forma_1" data-name="Forma 1" class="cls-1" d="M276.74,1065.98a5.187,5.187,0,0,0-.258-0.64A5.468,5.468,0,0,0,266,1066.96v0.69c0,0.02.01,0.28,0.024,0.41,0.2,1.59,1.453,3.28,2.39,4.88,1.007,1.7,2.053,3.38,3.089,5.06,0.639-1.1,1.275-2.2,1.9-3.27,0.17-.31.367-0.63,0.538-0.93,0.113-.2.33-0.39,0.429-0.58,1.008-1.85,2.63-3.71,2.63-5.55v-0.75A5.582,5.582,0,0,0,276.74,1065.98Zm-5.27,3.43a1.957,1.957,0,0,1-1.869-1.34,1.856,1.856,0,0,1-.053-0.5v-0.44a1.85,1.85,0,0,1,1.983-1.82,2.013,2.013,0,0,1,2.014,2.05A2.065,2.065,0,0,1,271.47,1069.41Z" transform="translate(-266 -1062)"/>
</svg>
