<svg xmlns="http://www.w3.org/2000/svg" width="15" height="12" viewBox="0 0 15 12">
  <defs>
    <style>
      .cls-1 {
        fill: #fff;
        fill-rule: evenodd;
      }
    </style>
  </defs>
  <path id="Forma_1" data-name="Forma 1" class="cls-1" d="M1377.66,1076a1.247,1.247,0,0,0,.88-0.34l-4.25-4.32-0.3.21c-0.31.24-.57,0.43-0.77,0.56a5.134,5.134,0,0,1-.79.41,2.382,2.382,0,0,1-.92.21h-0.02a2.382,2.382,0,0,1-.92-0.21,5.134,5.134,0,0,1-.79-0.41c-0.2-.13-0.46-0.32-0.77-0.56-0.09-.07-0.19-0.14-0.3-0.22l-4.25,4.33a1.247,1.247,0,0,0,.88.34h12.32Zm-12.81-7.39a4.658,4.658,0,0,1-.85-0.74v6.58l3.75-3.81C1367,1070.11,1366.03,1069.43,1364.85,1068.61Zm13.31,0c-1.14.79-2.11,1.46-2.9,2.03l3.74,3.81v-6.58A4.636,4.636,0,0,1,1378.16,1068.61Zm-0.5-4.61h-12.32a1.193,1.193,0,0,0-.99.44,1.773,1.773,0,0,0-.35,1.11,1.958,1.958,0,0,0,.46,1.16,4.189,4.189,0,0,0,.98.99c0.19,0.14.76,0.54,1.72,1.21,0.51,0.37.96,0.68,1.34,0.96,0.33,0.23.62,0.43,0.85,0.6q0.045,0.03.12,0.09c0.06,0.04.14,0.1,0.23,0.17,0.19,0.13.34,0.24,0.46,0.32s0.26,0.18.43,0.28a2.59,2.59,0,0,0,.48.23,1.348,1.348,0,0,0,.42.08h0.02a1.348,1.348,0,0,0,.42-0.08,2.59,2.59,0,0,0,.48-0.23c0.17-.1.31-0.2,0.43-0.28s0.27-.19.46-0.32c0.09-.07.17-0.13,0.23-0.17s0.09-.07.12-0.09c0.18-.13.47-0.33,0.85-0.6,0.69-.49,1.71-1.21,3.07-2.17a3.916,3.916,0,0,0,1.02-1.05,2.316,2.316,0,0,0,.41-1.29,1.307,1.307,0,0,0-.4-0.96A1.263,1.263,0,0,0,1377.66,1064Z" transform="translate(-1364 -1064)"/>
</svg>
