<svg xmlns="http://www.w3.org/2000/svg" width="12.375" height="13.18" viewBox="0 0 12.375 13.18">
  <defs>
    <style>
      .cls-1 {
        fill: #fff;
        fill-rule: evenodd;
      }
    </style>
  </defs>
  <path id="Forma_1" data-name="Forma 1" class="cls-1" d="M566.692,1072.08c-0.8-.68-1.616-1.09-2.409-0.41l-0.473.41c-0.346.3-.989,1.69-3.478-1.15s-1.008-3.27-.661-3.57l0.476-.41c0.788-.68.49-1.53-0.078-2.41l-0.343-.54c-0.571-.88-1.193-1.45-1.983-0.78l-0.427.37a4.017,4.017,0,0,0-1.563,2.63c-0.285,1.87.614,4.01,2.674,6.35s4.072,3.53,5.98,3.51a4.082,4.082,0,0,0,2.843-1.16l0.428-.37c0.788-.68.3-1.37-0.5-2.06Z" transform="translate(-555.719 -1062.91)"/>
</svg>
