<svg xmlns="http://www.w3.org/2000/svg" xmlns:xlink="http://www.w3.org/1999/xlink" preserveAspectRatio="xMidYMid" width="107" height="108" viewBox="0 0 107 108">
  <defs>
    <style>

      .cls-3 {
        fill: #333333;
      }

      .cls-4 {
        fill: #ffb900;
      }
    </style>
  </defs>
  <g id="продвижение">
    <path d="M95.079,108.000 C95.079,108.000 11.920,108.000 11.920,108.000 C5.348,108.000 -0.000,102.643 -0.000,96.058 C-0.000,96.058 -0.000,92.769 -0.000,92.769 C-0.000,91.605 0.943,90.660 2.105,90.660 C2.105,90.660 7.278,90.660 7.278,90.660 C7.278,90.660 7.278,36.457 7.278,36.457 C7.278,31.707 11.135,27.843 15.877,27.843 C15.877,27.843 41.714,27.843 41.714,27.843 C41.007,18.460 44.124,9.097 50.343,2.016 C50.343,2.016 51.041,1.222 51.041,1.222 C51.716,0.453 52.690,0.008 53.712,0.000 C53.721,0.000 53.730,0.000 53.739,0.000 C54.751,0.000 55.720,0.430 56.401,1.182 C56.401,1.182 56.771,1.591 56.771,1.591 C63.261,8.762 66.481,18.246 65.743,27.843 C65.743,27.843 91.124,27.843 91.124,27.843 C95.865,27.843 99.722,31.707 99.722,36.457 C99.722,36.457 99.722,75.131 99.722,75.131 C99.722,76.296 98.779,77.240 97.617,77.240 C96.454,77.240 95.511,76.296 95.511,75.131 C95.511,75.131 95.511,36.457 95.511,36.457 C95.511,34.033 93.543,32.062 91.124,32.062 C91.124,32.062 65.257,32.062 65.257,32.062 C65.257,32.062 65.218,32.373 65.218,32.373 C65.218,32.373 69.264,36.427 69.264,36.427 C73.088,40.258 75.194,45.352 75.194,50.769 C75.194,50.769 75.194,60.188 75.194,60.188 C75.194,61.022 74.703,61.777 73.943,62.116 C73.669,62.238 73.377,62.298 73.088,62.298 C72.577,62.298 72.072,62.111 71.677,61.754 C71.677,61.754 62.415,53.383 62.415,53.383 C62.152,53.858 61.715,54.225 61.175,54.385 C58.670,55.126 56.076,55.502 53.466,55.502 C53.435,55.502 53.403,55.502 53.372,55.502 C50.792,55.493 48.230,55.117 45.756,54.385 C45.231,54.230 44.802,53.880 44.536,53.425 C44.536,53.425 35.323,61.753 35.323,61.753 C34.928,62.110 34.423,62.297 33.912,62.297 C33.623,62.297 33.331,62.237 33.057,62.115 C32.296,61.776 31.806,61.021 31.806,60.187 C31.806,60.187 31.806,50.768 31.806,50.768 C31.806,45.351 33.912,40.257 37.736,36.426 C37.751,36.412 37.765,36.397 37.780,36.383 C37.780,36.383 42.155,32.247 42.155,32.247 C42.155,32.247 42.136,32.062 42.136,32.062 C42.136,32.062 15.876,32.062 15.876,32.062 C13.457,32.062 11.489,34.034 11.489,36.457 C11.489,36.457 11.489,90.660 11.489,90.660 C11.489,90.660 44.360,90.660 44.360,90.660 C45.523,90.660 46.466,91.605 46.466,92.769 C46.466,94.708 48.039,96.284 49.974,96.284 C49.974,96.284 56.971,96.284 56.971,96.284 C58.906,96.284 60.479,94.708 60.479,92.769 C60.479,91.605 61.422,90.660 62.585,90.660 C62.585,90.660 104.895,90.660 104.895,90.660 C106.057,90.660 107.000,91.604 107.000,92.769 C107.000,92.769 107.000,96.058 107.000,96.058 C107.000,102.643 101.652,108.000 95.079,108.000 ZM70.982,55.444 C70.982,55.444 70.982,50.770 70.982,50.770 C70.982,46.479 69.314,42.445 66.286,39.410 C66.286,39.410 64.550,37.672 64.550,37.672 C64.550,37.672 63.545,45.659 63.545,45.659 C63.545,45.659 63.199,48.409 63.199,48.409 C63.199,48.409 70.982,55.444 70.982,55.444 ZM45.988,28.375 C45.988,28.375 46.451,32.848 46.451,32.848 C46.451,32.848 46.451,32.848 46.451,32.848 C46.451,32.848 46.637,34.653 46.637,34.653 C46.637,34.653 48.296,50.694 48.296,50.694 C49.965,51.079 51.671,51.277 53.387,51.283 C53.413,51.283 53.440,51.283 53.466,51.283 C55.219,51.283 56.963,51.083 58.667,50.686 C58.667,50.686 58.883,48.973 58.883,48.973 C58.883,48.973 58.883,48.973 58.883,48.973 C58.883,48.973 60.910,32.870 60.910,32.870 C60.910,32.869 60.911,32.867 60.911,32.866 C60.911,32.866 61.395,29.020 61.395,29.020 C62.516,20.118 59.728,11.200 53.746,4.529 C53.746,4.529 53.505,4.803 53.505,4.803 C47.845,11.246 45.105,19.838 45.988,28.375 ZM40.693,39.430 C37.678,42.462 36.017,46.487 36.017,50.768 C36.017,50.768 36.017,55.443 36.017,55.443 C36.017,55.443 43.823,48.387 43.823,48.387 C43.823,48.387 42.701,37.531 42.701,37.531 C42.701,37.531 40.693,39.430 40.693,39.430 ZM102.788,96.058 C102.788,96.058 102.788,94.879 102.788,94.879 C102.788,94.879 64.398,94.879 64.398,94.879 C63.480,98.121 60.498,100.503 56.971,100.503 C56.971,100.503 49.974,100.503 49.974,100.503 C46.447,100.503 43.465,98.121 42.546,94.879 C42.546,94.879 4.211,94.879 4.211,94.879 C4.211,94.879 4.211,96.058 4.211,96.058 C4.211,100.317 7.669,103.781 11.920,103.781 C11.920,103.781 95.080,103.781 95.080,103.781 C99.331,103.781 102.789,100.317 102.789,96.058 C102.789,96.058 102.788,96.058 102.788,96.058 ZM55.606,22.269 C55.606,23.434 54.663,24.378 53.500,24.378 C52.337,24.378 51.394,23.434 51.394,22.269 C51.394,21.104 52.337,20.159 53.500,20.159 C54.663,20.159 55.606,21.104 55.606,22.269 Z" id="path-1" class="cls-3" fill-rule="evenodd"/>
    <path d="M96.874,86.436 C95.711,86.436 94.769,85.491 94.769,84.326 C94.769,83.161 95.711,82.217 96.874,82.217 C98.037,82.217 98.980,83.161 98.980,84.326 C98.980,85.491 98.037,86.436 96.874,86.436 ZM88.309,86.076 C88.309,86.076 17.911,86.076 17.911,86.076 C16.749,86.076 15.806,85.131 15.806,83.966 C15.806,83.966 15.806,38.880 15.806,38.880 C15.806,37.715 16.749,36.771 17.911,36.771 C17.911,36.771 26.695,36.771 26.695,36.771 C27.858,36.771 28.801,37.715 28.801,38.880 C28.801,40.045 27.858,40.990 26.695,40.990 C26.695,40.990 20.017,40.990 20.017,40.990 C20.017,40.990 20.017,81.857 20.017,81.857 C20.017,81.857 86.204,81.857 86.204,81.857 C86.204,81.857 86.204,40.990 86.204,40.990 C86.204,40.990 77.709,40.990 77.709,40.990 C76.547,40.990 75.604,40.045 75.604,38.880 C75.604,37.715 76.547,36.771 77.709,36.771 C77.709,36.771 88.309,36.771 88.309,36.771 C89.472,36.771 90.415,37.715 90.415,38.880 C90.415,38.880 90.415,83.966 90.415,83.966 C90.415,85.131 89.472,86.076 88.309,86.076 ZM57.979,74.959 C56.816,74.959 55.874,74.014 55.874,72.849 C55.874,72.849 55.874,60.187 55.874,60.187 C55.874,59.023 56.816,58.078 57.979,58.078 C59.142,58.078 60.085,59.023 60.085,60.187 C60.085,60.187 60.085,72.849 60.085,72.849 C60.085,74.014 59.142,74.959 57.979,74.959 ZM47.282,71.372 C46.119,71.372 45.176,70.427 45.176,69.263 C45.176,69.263 45.176,60.676 45.176,60.676 C45.176,59.512 46.119,58.567 47.282,58.567 C48.445,58.567 49.387,59.512 49.387,60.676 C49.387,60.676 49.387,69.263 49.387,69.263 C49.387,70.428 48.445,71.372 47.282,71.372 Z" id="path-2" class="cls-4" fill-rule="evenodd"/>
  </g>
</svg>
