<svg xmlns="http://www.w3.org/2000/svg" xmlns:xlink="http://www.w3.org/1999/xlink" preserveAspectRatio="xMidYMid" width="110" height="105" viewBox="0 0 110 105">
  <defs>
    <style>

      .cls-3 {
        fill: #333333;
      }

      .cls-4 {
        fill: #ffb900;
      }
    </style>
  </defs>
  <g id="исследования">
    <path d="M106.072,6.233 C106.072,6.233 58.464,6.233 58.464,6.233 C58.464,6.233 58.464,3.461 58.464,3.461 C58.464,2.101 57.361,0.998 56.000,0.998 C54.639,0.998 53.536,2.101 53.536,3.461 C53.536,3.461 53.536,6.233 53.536,6.233 C53.536,6.233 5.928,6.233 5.928,6.233 C3.211,6.233 1.000,8.442 1.000,11.158 C1.000,11.158 1.000,15.729 1.000,15.729 C1.000,18.445 3.211,20.654 5.928,20.654 C5.928,20.654 6.598,20.654 6.598,20.654 C6.598,20.654 6.598,76.010 6.598,76.010 C6.598,78.725 8.809,80.935 11.526,80.935 C11.526,80.935 53.536,80.935 53.536,80.935 C53.536,80.935 53.536,88.164 53.536,88.164 C53.536,88.164 35.276,101.550 35.276,101.550 C34.178,102.355 33.941,103.897 34.746,104.993 C35.551,106.091 37.093,106.327 38.190,105.523 C38.190,105.523 53.536,94.271 53.536,94.271 C53.536,94.271 53.536,103.537 53.536,103.537 C53.536,104.896 54.639,106.000 56.000,106.000 C57.361,106.000 58.464,104.896 58.464,103.537 C58.464,103.537 58.464,94.271 58.464,94.271 C58.464,94.271 73.809,105.523 73.809,105.523 C74.249,105.845 74.759,106.000 75.265,106.000 C76.023,106.000 76.771,105.651 77.254,104.993 C78.059,103.897 77.822,102.355 76.724,101.550 C76.724,101.550 58.464,88.164 58.464,88.164 C58.464,88.164 58.464,80.936 58.464,80.936 C58.464,80.936 100.474,80.936 100.474,80.936 C103.191,80.936 105.402,78.726 105.402,76.011 C105.402,76.011 105.402,20.654 105.402,20.654 C105.402,20.654 106.072,20.654 106.072,20.654 C108.789,20.654 111.000,18.445 111.000,15.729 C111.000,15.729 111.000,11.158 111.000,11.158 C111.000,8.442 108.789,6.233 106.072,6.233 ZM100.474,76.010 C100.474,76.010 11.526,76.010 11.526,76.010 C11.526,76.010 11.526,20.654 11.526,20.654 C11.526,20.654 100.474,20.654 100.474,20.654 C100.474,20.654 100.474,76.010 100.474,76.010 C100.474,76.010 100.474,76.010 100.474,76.010 ZM106.072,15.729 C106.072,15.729 5.928,15.729 5.928,15.729 C5.928,15.729 5.928,11.158 5.928,11.158 C5.928,11.158 106.072,11.158 106.072,11.158 C106.072,11.158 106.072,15.729 106.072,15.729 C106.072,15.729 106.072,15.729 106.072,15.729 Z" id="path-1" class="cls-3" fill-rule="evenodd"/>
    <path d="M55.712,69.645 C43.889,69.645 34.270,60.032 34.270,48.216 C34.270,46.991 35.263,46.000 36.488,46.000 C36.488,46.000 53.494,46.000 53.494,46.000 C53.494,46.000 53.494,29.002 53.494,29.002 C53.494,27.778 54.487,26.786 55.712,26.786 C67.535,26.786 77.154,36.400 77.154,48.216 C77.154,60.032 67.535,69.645 55.712,69.645 ZM57.929,31.362 C57.929,31.362 57.929,48.216 57.929,48.216 C57.929,49.440 56.937,50.433 55.712,50.433 C55.712,50.433 38.849,50.433 38.849,50.433 C39.939,58.762 47.086,65.213 55.712,65.213 C65.089,65.213 72.718,57.588 72.718,48.216 C72.718,39.595 66.263,32.453 57.929,31.362 ZM48.206,42.931 C48.206,42.931 34.194,42.931 34.194,42.931 C32.969,42.931 31.977,41.939 31.977,40.716 C31.977,31.770 39.257,24.493 48.206,24.493 C49.431,24.493 50.424,25.486 50.423,26.710 C50.423,26.710 50.423,40.716 50.423,40.716 C50.423,41.939 49.430,42.931 48.206,42.931 ZM45.988,29.135 C41.260,30.037 37.524,33.772 36.621,38.499 C36.621,38.499 45.988,38.499 45.988,38.499 C45.988,38.499 45.988,29.135 45.988,29.135 Z" id="path-2" class="cls-4" fill-rule="evenodd"/>
  </g>
</svg>
