<svg xmlns="http://www.w3.org/2000/svg" width="18" height="18" viewBox="0 0 18 18">
  <defs>
    <style>
      .cls-1 {
        fill: #fff;
        fill-rule: evenodd;
      }
    </style>
  </defs>
  <path class="cls-1" d="M847.2,1061a6.959,6.959,0,0,1,2.967.43c0.063,0.03.218,0.24,0.262,0.26a1.691,1.691,0,0,0,.785-0.08c0.756,0.02,1.513.05,2.269,0.08a8.679,8.679,0,0,1,6.2,4.65c0.639,1.22,1.417,3.7.7,5.42,0.056,0.44.408,1.01,0.523,1.47,0.538,2.15-1.206,4.34-2.269,4.99a5.125,5.125,0,0,1-3.49.69c-0.454-.11-0.993-0.41-1.4-0.52l-2.705.09a11.613,11.613,0,0,1-4.276-1.72,9.078,9.078,0,0,1-3.229-5.6c0.029-.97.059-1.95,0.088-2.93-0.419-1.38-1.015-2.58-.262-4.3a5.21,5.21,0,0,1,2.618-2.58A7.685,7.685,0,0,0,847.2,1061Zm3.665,3.1a3.625,3.625,0,0,1-.872.17,6.384,6.384,0,0,0-1.571.69,2.99,2.99,0,0,0,.349,5c1.323,0.79,4.508.72,5.323,1.89a0.934,0.934,0,0,1,.087.95c-0.314.98-2.441,1.52-3.578,0.86-0.7-.41-0.765-1.15-1.221-1.81-0.2-.17-0.407-0.35-0.611-0.52a1.477,1.477,0,0,0-1.047.09,1.756,1.756,0,0,0-.7.6c-0.273,4.8,8.346,5.01,9.86,1.38,1.406-3.37-2.323-4.29-4.45-4.91-0.911-.26-2.126-0.2-2.443-1.03a1.357,1.357,0,0,1-.088-0.69c1.1-.73,1.487-0.81,3.142-0.6a26.229,26.229,0,0,0,1.745,1.98c1.223,0.04,1.781-.36,1.745-1.55-0.2-.28-0.234-0.67-0.436-0.95C855.115,1064.3,853.265,1064.09,850.864,1064.1Z" transform="translate(-843 -1061)"/>
</svg>
