<svg xmlns="http://www.w3.org/2000/svg" width="20" height="20" viewBox="0 0 20 20">
  <defs>
    <style>
      .cls-1 {
        fill: #fff;
        fill-rule: evenodd;
      }
    </style>
  </defs>
  <path class="cls-1" d="M1100.75,1060.02a13.529,13.529,0,0,1,3.42.17c4.56,1.23,9.43,6.28,7.33,12.69a12.723,12.723,0,0,1-1.96,3.6,10.248,10.248,0,0,1-5.86,3.36c-2.42.57-6.08-.49-7.17-1.56-1.28.41-2.55,0.82-3.83,1.23v-0.16a16.816,16.816,0,0,0,1.14-3.61,6.26,6.26,0,0,0-.65-1.06,14.153,14.153,0,0,1-.98-2.7,7.493,7.493,0,0,1-.08-2.95c0.15-.69.05-1.19,0.25-1.8a10.822,10.822,0,0,1,4.8-6.06,10.2,10.2,0,0,1,2.61-.98A3.832,3.832,0,0,0,1100.75,1060.02Zm-2.94,4.1a0.565,0.565,0,0,1-.32.08,6.679,6.679,0,0,0-1.22,1.47c-0.71,1.68.22,3.4,0.89,4.42,1.82,2.76,3.85,4.91,7.5,5.82,1.6,0.4,4.05-1.38,3.42-2.7a6.2,6.2,0,0,0-3.1-1.64,9.34,9.34,0,0,1-1.46,1.55c-1.63-.65-4.21-2.46-4.48-4.34a8.124,8.124,0,0,0,1.14-1.39,17.876,17.876,0,0,0-1.23-3.19h-0.73A0.722,0.722,0,0,0,1097.81,1064.12Z" transform="translate(-1092 -1060)"/>
</svg>
