<svg xmlns="http://www.w3.org/2000/svg">
	<symbol id="logo-text">
		<path id="эволюция_продвижения" data-name="эволюция  продвижения" fill="#282828" d="M472.7,88.7a3.8,3.8,0,0,0,.366.126c0.166,0.051.355,0.1,0.568,0.147a6.934,6.934,0,0,0,.8.123,9.567,9.567,0,0,0,1,.051,3.877,3.877,0,0,0,3.241-1.388,6.631,6.631,0,0,0,1.1-4.157,6.657,6.657,0,0,0-1.1-4.149,3.861,3.861,0,0,0-3.241-1.4,7.519,7.519,0,0,0-1.469.14,6.864,6.864,0,0,0-.9.219,3.181,3.181,0,0,0-.315.139,1.034,1.034,0,0,0,.352.82l0.263-.095a5.775,5.775,0,0,1,.824-0.176,7.119,7.119,0,0,1,1.117-.088,3.766,3.766,0,0,1,1.271.2,2.667,2.667,0,0,1,1,.648,3.086,3.086,0,0,1,.7,1.252,7.533,7.533,0,0,1,.307,1.938h-4.079l-0.022.051a0.694,0.694,0,0,0-.044.161,1.324,1.324,0,0,0-.022.249,1.079,1.079,0,0,0,.088.469H478.6a7.961,7.961,0,0,1-.278,2.043,3.127,3.127,0,0,1-.7,1.3,2.6,2.6,0,0,1-1.011.665,3.907,3.907,0,0,1-1.307.2,7.638,7.638,0,0,1-1.238-.1,7.787,7.787,0,0,1-.824-0.166c-0.134-.042-0.238-0.077-0.311-0.106a1.147,1.147,0,0,0-.344.836ZM486.029,89a3.256,3.256,0,0,0,2.378-.8,2.913,2.913,0,0,0,.812-2.176,2.645,2.645,0,0,0-.722-1.947,3.265,3.265,0,0,0-.9-0.61,2.6,2.6,0,0,0,1.289-2.38,3.586,3.586,0,0,0-.168-1.125,2.725,2.725,0,0,0-.509-0.913,2.257,2.257,0,0,0-.912-0.628,3.552,3.552,0,0,0-1.318-.227h-3.809V89h3.863Zm-2.757-5.025h2.563a2.445,2.445,0,0,1,1.7.5,2.036,2.036,0,0,1,.546,1.571,2.059,2.059,0,0,1-.528,1.531,2.375,2.375,0,0,1-1.714.52h-2.563V83.975Zm0-4.878h2.446a2.01,2.01,0,0,1,1.549.518,2.111,2.111,0,0,1,.473,1.474,1.771,1.771,0,0,1-2.007,2h-2.461V79.1Zm8.884,8.693a4.122,4.122,0,0,0,6.112,0,6.718,6.718,0,0,0,1.073-4.192,6.709,6.709,0,0,0-1.075-4.187,4.1,4.1,0,0,0-6.1,0,6.713,6.713,0,0,0-1.076,4.183A6.732,6.732,0,0,0,492.156,87.79Zm0.908-7.8a2.372,2.372,0,0,1,.92-0.768,3.277,3.277,0,0,1,2.453,0,2.4,2.4,0,0,1,.923.768,3.759,3.759,0,0,1,.6,1.435,11.663,11.663,0,0,1,0,4.354,3.759,3.759,0,0,1-.6,1.435,2.406,2.406,0,0,1-.923.769,3.286,3.286,0,0,1-2.453,0,2.377,2.377,0,0,1-.92-0.769,3.79,3.79,0,0,1-.6-1.434,11.663,11.663,0,0,1,0-4.354A3.79,3.79,0,0,1,493.064,79.987Zm7.259,9a1.64,1.64,0,0,0,.605.1,1.967,1.967,0,0,0,.432-0.044,1.754,1.754,0,0,0,.911-0.588,3.753,3.753,0,0,0,.432-0.709,5.913,5.913,0,0,0,.409-1.358c0.122-.6.184-0.9,0.184-0.9l0.27-2.743,0.358-3.646h3.437v9.816h0.008a0.062,0.062,0,0,0,.029.014l0.051,0.018a0.621,0.621,0,0,0,.077.022c0.032,0.007.066,0.013,0.1,0.017s0.079,0.008.128,0.011,0.1,0,.154,0a1.426,1.426,0,0,0,.556-0.087V78.2h-5.53L502.521,82.7q-0.222,2.383-.223,2.382l-0.138.774a6.327,6.327,0,0,1-.292,1.16,3.591,3.591,0,0,1-.286.593,1.237,1.237,0,0,1-.3.331,0.993,0.993,0,0,1-.282.162,1.049,1.049,0,0,1-.257.044c-0.053,0-.107.007-0.161,0.007s-0.106,0-.157,0l-0.106,0a1.08,1.08,0,0,0-.088.436,0.871,0.871,0,0,0,.088.4h0Zm11.074-.053a0.855,0.855,0,0,0,.187.044A1.91,1.91,0,0,0,511.9,89a1.47,1.47,0,0,0,.557-0.089V84.063h2.475q0.168,5.084,4.1,5.083a3.672,3.672,0,0,0,3.066-1.357,6.74,6.74,0,0,0,1.069-4.19,6.744,6.744,0,0,0-1.069-4.191,4.129,4.129,0,0,0-6.021-.11,6.181,6.181,0,0,0-1.143,3.834h-2.475V78.292l-0.059-.022a1.243,1.243,0,0,0-.2-0.047,1.734,1.734,0,0,0-.312-0.026,1.157,1.157,0,0,0-.534.1V88.911Zm5.472-8.946a2.375,2.375,0,0,1,.924-0.769,3.323,3.323,0,0,1,2.471,0,2.375,2.375,0,0,1,.924.769,3.749,3.749,0,0,1,.6,1.436,11.836,11.836,0,0,1,0,4.355,3.736,3.736,0,0,1-.6,1.433,2.366,2.366,0,0,1-.924.768,3.332,3.332,0,0,1-2.471,0,2.366,2.366,0,0,1-.924-0.768,3.752,3.752,0,0,1-.6-1.433,11.894,11.894,0,0,1,0-4.355A3.764,3.764,0,0,1,516.869,79.987ZM532.908,89v2.087a1.576,1.576,0,0,0,.52.088,1.384,1.384,0,0,0,.513-0.088V88.04h-1.172V78.292l-0.058-.022a1.251,1.251,0,0,0-.2-0.047,1.594,1.594,0,0,0-.3-0.026,1.179,1.179,0,0,0-.553.1V88.04h-4.98V78.292l-0.059-.022a1.242,1.242,0,0,0-.2-0.047,1.623,1.623,0,0,0-.3-0.026,1.144,1.144,0,0,0-.549.1V89h7.331Zm3.208-.066a1.166,1.166,0,0,0,.22.044A2.78,2.78,0,0,0,536.7,89q0.124,0,.234-0.008a1.388,1.388,0,0,0,.187-0.022q0.076-.015.132-0.029l0.084-.022,0.037-.007,3.962-6.885a17.718,17.718,0,0,0,1.092-2.3h0.044l-0.022.264q-0.023.271-.044,1.011t-0.022,1.684v6.225l0.051,0.022a0.916,0.916,0,0,0,.19.044,2.081,2.081,0,0,0,.315.022,1.3,1.3,0,0,0,.55-0.088V78.292l-0.059-.022a1.564,1.564,0,0,0-.227-0.047,2.249,2.249,0,0,0-.359-0.026,1.582,1.582,0,0,0-.644.1L538.291,85.1a14.419,14.419,0,0,0-1.171,2.454h-0.044l0.022-.352c0.014-.234.029-0.6,0.043-1.095s0.022-1.007.022-1.535V78.292l-0.058-.022a1,1,0,0,0-.191-0.047,1.655,1.655,0,0,0-.307-0.026,1.2,1.2,0,0,0-.549.1v10.62Zm9.576,0a1.491,1.491,0,0,0,.224.044,2.466,2.466,0,0,0,.333.022,1.887,1.887,0,0,0,.636-0.088L549.3,84.48h2.421v4.431l0.059,0.022a0.946,0.946,0,0,0,.19.044,2.024,2.024,0,0,0,.308.022,1.179,1.179,0,0,0,.549-0.088V78.2h-3.775a3.026,3.026,0,0,0-2.265.855,3.108,3.108,0,0,0-.837,2.273,3.334,3.334,0,0,0,.567,1.974,2.672,2.672,0,0,0,1.6,1.059l-2.5,4.555Zm1.942-9.227a1.948,1.948,0,0,1,1.5-.58h2.59v4.394h-2.59a1.955,1.955,0,0,1-1.5-.576A2.7,2.7,0,0,1,547.634,79.707Zm-74.14,27.227a0.9,0.9,0,0,0,.187.044,2.037,2.037,0,0,0,.311.022,1.405,1.405,0,0,0,.557-0.088V97.185h4.892v9.727l0.059,0.022a0.931,0.931,0,0,0,.194.044,2.189,2.189,0,0,0,.319.022,1.3,1.3,0,0,0,.534-0.088V96.2h-7.1v10.716Zm9.983,0a0.931,0.931,0,0,0,.194.044,2.189,2.189,0,0,0,.319.022,1.309,1.309,0,0,0,.542-0.088V102.62h2.688a2.973,2.973,0,0,0,2.266-.885,3.652,3.652,0,0,0,0-4.658,2.979,2.979,0,0,0-2.266-.881h-3.794v10.716Zm1.055-9.807h2.578a1.907,1.907,0,0,1,1.509.606,2.466,2.466,0,0,1,.534,1.686,2.364,2.364,0,0,1-.538,1.642,1.919,1.919,0,0,1-1.5.6h-2.578V97.127Zm8.5,8.663a4.122,4.122,0,0,0,6.112,0,6.717,6.717,0,0,0,1.073-4.192,6.709,6.709,0,0,0-1.075-4.186,4.1,4.1,0,0,0-6.1,0,6.712,6.712,0,0,0-1.076,4.183A6.731,6.731,0,0,0,493.035,105.79Zm0.908-7.8a2.376,2.376,0,0,1,.919-0.769,3.279,3.279,0,0,1,2.454,0,2.4,2.4,0,0,1,.923.769,3.759,3.759,0,0,1,.6,1.434,11.664,11.664,0,0,1,0,4.355,3.763,3.763,0,0,1-.6,1.435,2.4,2.4,0,0,1-.923.768,3.282,3.282,0,0,1-2.454,0,2.377,2.377,0,0,1-.919-0.768,3.794,3.794,0,0,1-.6-1.435,11.664,11.664,0,0,1,0-4.355A3.79,3.79,0,0,1,493.943,97.987Zm7.244,11.086a1.5,1.5,0,0,0,.52.087,1.486,1.486,0,0,0,.513-0.087V107h7.265v2.073a1.531,1.531,0,0,0,.528.087,1.309,1.309,0,0,0,.5-0.087v-3h-1.187V96.2h-5.639l-0.405,5.3a17.637,17.637,0,0,1-.423,2.911,3.962,3.962,0,0,1-.778,1.666h-0.9v3Zm3.151-7.487,0.329-4.5h3.558v8.987h-4.879a11.083,11.083,0,0,0,.992-4.483h0ZM516.461,107a3.257,3.257,0,0,0,2.378-.8,2.916,2.916,0,0,0,.812-2.176,2.638,2.638,0,0,0-.722-1.947,3.25,3.25,0,0,0-.9-0.61,2.6,2.6,0,0,0,1.289-2.379,3.587,3.587,0,0,0-.168-1.125,2.708,2.708,0,0,0-.509-0.913,2.257,2.257,0,0,0-.912-0.628,3.554,3.554,0,0,0-1.318-.227H512.6V107h3.863Zm-2.757-5.025h2.563a2.446,2.446,0,0,1,1.7.5,2.507,2.507,0,0,1,.018,3.1,2.369,2.369,0,0,1-1.714.521H513.7v-4.124Zm0-4.878h2.446a2.011,2.011,0,0,1,1.549.518,2.111,2.111,0,0,1,.473,1.474,1.77,1.77,0,0,1-2.007,2H513.7V97.1Zm8.357,9.837a1.179,1.179,0,0,0,.22.044,2.834,2.834,0,0,0,.366.022c0.083,0,.161,0,0.234-0.008a1.234,1.234,0,0,0,.187-0.022c0.051-.01.1-0.019,0.132-0.029l0.084-.022,0.037-.007,3.962-6.885a17.544,17.544,0,0,0,1.091-2.3h0.044l-0.022.264q-0.021.272-.044,1.011t-0.022,1.684v6.226l0.052,0.022a0.909,0.909,0,0,0,.19.044,2.122,2.122,0,0,0,.315.022,1.3,1.3,0,0,0,.549-0.088V96.292l-0.058-.022a1.644,1.644,0,0,0-.227-0.048,2.326,2.326,0,0,0-.359-0.025,1.591,1.591,0,0,0-.645.1l-3.911,6.811a14.525,14.525,0,0,0-1.172,2.454H523.02l0.022-.352q0.022-.351.044-1.095t0.022-1.534V96.292l-0.058-.022a1.063,1.063,0,0,0-.191-0.048,1.719,1.719,0,0,0-.307-0.025,1.207,1.207,0,0,0-.55.1v10.62Zm9.17,0a1.405,1.405,0,0,0,.227.044,2.707,2.707,0,0,0,.351.022,1.813,1.813,0,0,0,.63-0.088l3.267-5.054h1.655v5.054l0.059,0.022a1.129,1.129,0,0,0,.2.044,1.993,1.993,0,0,0,.3.022,1.238,1.238,0,0,0,.549-0.088v-5.054h1.59l3.288,5.054,0.073,0.022a1.733,1.733,0,0,0,.238.044A2.753,2.753,0,0,0,544,107a1.922,1.922,0,0,0,.659-0.088l-3.676-5.664,3.215-4.957a1.689,1.689,0,0,0-.586-0.095,1.461,1.461,0,0,0-.571.095l-3,4.637h-1.575V96.291l-0.058-.022a1.141,1.141,0,0,0-.187-0.047,1.669,1.669,0,0,0-.3-0.025,1.325,1.325,0,0,0-.557.095v4.637h-1.589l-3-4.637A1.464,1.464,0,0,0,532.2,96.2a1.689,1.689,0,0,0-.586.095l3.2,4.972-3.647,5.649ZM552.471,107a1.287,1.287,0,0,0,.088-0.484,1.087,1.087,0,0,0-.088-0.447h-5v-4.094h4.094a1.263,1.263,0,0,0,.095-0.476,1.107,1.107,0,0,0-.095-0.454h-4.094V97.127h4.849a1.176,1.176,0,0,0,.087-0.476,1.117,1.117,0,0,0-.087-0.454H546.37V107h6.1Zm2.271-.066a0.744,0.744,0,0,0,.183.044,2.1,2.1,0,0,0,.315.022,1.418,1.418,0,0,0,.556-0.088V101.96h5.069v4.952l0.051,0.022a0.878,0.878,0,0,0,.189.044,2.084,2.084,0,0,0,.313.022,1.342,1.342,0,0,0,.553-0.088V96.292l-0.059-.022a1.266,1.266,0,0,0-.2-0.048,1.656,1.656,0,0,0-.3-0.025,1.293,1.293,0,0,0-.553.1v4.68H555.8v-4.68l-0.058-.022a1.307,1.307,0,0,0-.2-0.048,1.679,1.679,0,0,0-.3-0.025,1.26,1.26,0,0,0-.55.1v10.62Zm10.173,0a1.179,1.179,0,0,0,.22.044,2.834,2.834,0,0,0,.366.022c0.083,0,.161,0,0.234-0.008a1.234,1.234,0,0,0,.187-0.022c0.051-.01.1-0.019,0.132-0.029l0.084-.022,0.037-.007,3.962-6.885a17.544,17.544,0,0,0,1.091-2.3h0.044l-0.022.264q-0.021.272-.044,1.011t-0.022,1.684v6.226l0.052,0.022a0.909,0.909,0,0,0,.19.044,2.122,2.122,0,0,0,.315.022,1.3,1.3,0,0,0,.549-0.088V96.292l-0.058-.022a1.644,1.644,0,0,0-.227-0.048,2.326,2.326,0,0,0-.359-0.025,1.591,1.591,0,0,0-.645.1L567.09,103.1a14.525,14.525,0,0,0-1.172,2.454h-0.044l0.022-.352q0.023-.351.044-1.095t0.022-1.534V96.292L565.9,96.27a1.063,1.063,0,0,0-.191-0.048,1.719,1.719,0,0,0-.307-0.025,1.207,1.207,0,0,0-.55.1v10.62Zm9.576,0a1.551,1.551,0,0,0,.224.044,2.516,2.516,0,0,0,.333.022,1.9,1.9,0,0,0,.636-0.088l2.418-4.432h2.421v4.432l0.058,0.022a1.015,1.015,0,0,0,.191.044,2.06,2.06,0,0,0,.307.022,1.188,1.188,0,0,0,.55-0.088V96.2h-3.775a3.026,3.026,0,0,0-2.265.855,3.109,3.109,0,0,0-.838,2.273,3.335,3.335,0,0,0,.568,1.974,2.673,2.673,0,0,0,1.6,1.059l-2.5,4.555Zm1.942-9.227a1.948,1.948,0,0,1,1.5-.58h2.59v4.394h-2.59a1.953,1.953,0,0,1-1.5-.577A2.7,2.7,0,0,1,576.433,97.707Z" transform="translate(-251.25 -78)"/>
		<rect class="cls-2" x="202.75" width="6" height="29"/>
		<path id="seo" class="cls-3" d="M251.564,106.126q0.31,0.138.937,0.34t1.418,0.411a14.594,14.594,0,0,0,1.925.347,18.879,18.879,0,0,0,2.307.139q7.543,0,7.544-6.175a7.162,7.162,0,0,0-.265-2,5.548,5.548,0,0,0-.679-1.531,5.136,5.136,0,0,0-1.041-1.131,7.721,7.721,0,0,0-1.221-.828,12.413,12.413,0,0,0-1.345-.607q-0.44-.165-1.06-0.365t-1.047-.331q-0.426-.131-0.906-0.317a4.265,4.265,0,0,1-.757-0.366,1.634,1.634,0,0,1-.46-0.441,0.989,0.989,0,0,1-.183-0.579q0-1.67,3.1-1.669a12.893,12.893,0,0,1,3.763.538,5.079,5.079,0,0,0,.885-1.717,6.78,6.78,0,0,0,.3-1.906V87.775l-0.65-.256a12.8,12.8,0,0,0-2.105-.492,18.163,18.163,0,0,0-3.067-.249q-3.738,0-5.6,1.7a5.97,5.97,0,0,0-1.862,4.636,7.218,7.218,0,0,0,.078,1.09,5.361,5.361,0,0,0,2.942,4.083,18.983,18.983,0,0,0,3.062,1.186q0.6,0.194.933,0.311t0.765,0.31a2.848,2.848,0,0,1,.649.379,1.734,1.734,0,0,1,.379.448,1.121,1.121,0,0,1,.155.579q0,1.615-2.773,1.615a15.418,15.418,0,0,1-2.644-.235,17.1,17.1,0,0,1-1.816-.379c-0.307-.1-0.544-0.178-0.71-0.241a5.48,5.48,0,0,0-.9,1.712,6.214,6.214,0,0,0-.351,2.009ZM281.344,107a5.739,5.739,0,0,0,.283-1.98,5.864,5.864,0,0,0-.283-1.913h-7.778V98.862H279.7a6.312,6.312,0,0,0,.27-1.94,6.777,6.777,0,0,0-.27-1.872h-6.133V91.022h7.508a6.359,6.359,0,0,0,.27-2.034,6.025,6.025,0,0,0-.27-1.859H268.323V107h13.021Zm3.621-2.159a8.951,8.951,0,0,0,12.459,0q2.13-2.526,2.13-7.755t-2.2-7.768a8.716,8.716,0,0,0-12.315.017q-2.2,2.557-2.2,7.75Q282.84,102.317,284.965,104.84Zm3.321-10.9a5.45,5.45,0,0,1,.621-1.949,2.491,2.491,0,0,1,.959-0.961,2.894,2.894,0,0,1,1.324-.276,3.3,3.3,0,0,1,1.108.168,2.168,2.168,0,0,1,.864.591,3.137,3.137,0,0,1,.635,1.136,9.283,9.283,0,0,1,.379,1.815,25.392,25.392,0,0,1,0,5.23,9.281,9.281,0,0,1-.379,1.815,3.063,3.063,0,0,1-.635,1.129,2.193,2.193,0,0,1-.864.585,3.306,3.306,0,0,1-1.108.168,2.878,2.878,0,0,1-1.324-.276,2.486,2.486,0,0,1-.959-0.96,5.466,5.466,0,0,1-.621-1.943,20.149,20.149,0,0,1-.2-3.126A20.387,20.387,0,0,1,288.286,93.938Z" transform="translate(-251.25 -78)"/>
		<path id="evolution" fill="#282828" d="M315.278,106.261a3.688,3.688,0,0,0,.269-1.394,3.906,3.906,0,0,0-.269-1.3h-7.72V98.09h6.148a3.75,3.75,0,0,0,.268-1.394,3.9,3.9,0,0,0-.268-1.3h-6.148V90.1h7.465a3.837,3.837,0,0,0,.255-1.432,3.536,3.536,0,0,0-.255-1.266H304.21v18.862h11.068Zm7.822-.2,0.243,0.051c0.162,0.034.411,0.069,0.748,0.1a10.216,10.216,0,0,0,1.029.051,8.675,8.675,0,0,0,2.007-.2l6.135-18.388-0.2-.064a5.05,5.05,0,0,0-.639-0.135,5.689,5.689,0,0,0-.895-0.07,3.218,3.218,0,0,0-1.534.269l-3.744,11.2a27.218,27.218,0,0,0-1,3.8h-0.1l-0.089-.474c-0.06-.323-0.171-0.8-0.332-1.425s-0.345-1.247-.55-1.861l-3.719-11.24-0.141-.064a3.01,3.01,0,0,0-.556-0.135,5.342,5.342,0,0,0-.9-0.07,4.218,4.218,0,0,0-1.853.319Zm13.44-1.905a7.815,7.815,0,0,0,11.2,0q1.969-2.365,1.969-7.314,0-4.923-2-7.308a7.674,7.674,0,0,0-11.139.019q-2,2.4-2,7.289Q334.578,101.786,336.54,104.151Zm1.847-10.729a5.421,5.421,0,0,1,.839-2.136,3.162,3.162,0,0,1,1.254-1.061,4.1,4.1,0,0,1,1.658-.307,4.638,4.638,0,0,1,1.376.186,2.991,2.991,0,0,1,1.114.652,3.482,3.482,0,0,1,.851,1.24A8.282,8.282,0,0,1,346,93.985a19.1,19.1,0,0,1,.185,2.852,17.725,17.725,0,0,1-.275,3.4,5.35,5.35,0,0,1-.832,2.135,3.148,3.148,0,0,1-1.255,1.062,4.158,4.158,0,0,1-1.683.307,4.5,4.5,0,0,1-1.344-.185,2.951,2.951,0,0,1-1.107-.659,3.632,3.632,0,0,1-.858-1.241,8.1,8.1,0,0,1-.531-1.981,18.413,18.413,0,0,1-.192-2.839A17.441,17.441,0,0,1,338.387,93.422Zm25.665,12.839a4.76,4.76,0,0,0,.255-1.445,3.651,3.651,0,0,0-.255-1.432h-7.516V87.642l-0.179-.064a3.016,3.016,0,0,0-.594-0.122,7.112,7.112,0,0,0-.927-0.057,4.276,4.276,0,0,0-1.648.243v18.619h10.864Zm4.058-1.567a6.728,6.728,0,0,0,4.965,1.822,6.846,6.846,0,0,0,5-1.8,6.745,6.745,0,0,0,1.84-5.057V87.642l-0.166-.064a3.344,3.344,0,0,0-.6-0.122,6.844,6.844,0,0,0-.907-0.057,4.077,4.077,0,0,0-1.623.243v12.544a3.522,3.522,0,0,1-.908,2.584,4.092,4.092,0,0,1-5.17,0,3.508,3.508,0,0,1-.914-2.584V87.642l-0.179-.064a3,3,0,0,0-.594-0.122,7.1,7.1,0,0,0-.927-0.057,4.279,4.279,0,0,0-1.648.243V99.663A6.77,6.77,0,0,0,368.11,104.694Zm14.654-14.418h4.754v15.755l0.154,0.051a2.642,2.642,0,0,0,.568.122,7.085,7.085,0,0,0,.953.057,4.854,4.854,0,0,0,1.674-.23V90.276h4.64l0.064-.178a3.536,3.536,0,0,0,.127-0.548,4.278,4.278,0,0,0,.064-0.738,3.77,3.77,0,0,0-.255-1.413H382.764l-0.064.178a3.879,3.879,0,0,0-.135.547,4.009,4.009,0,0,0-.07.738,3.213,3.213,0,0,0,.269,1.413h0Zm15.848,15.806a2.67,2.67,0,0,0,.569.122,7.08,7.08,0,0,0,.952.057,4.857,4.857,0,0,0,1.675-.23V87.642l-0.179-.064a3.033,3.033,0,0,0-.594-0.122,7.123,7.123,0,0,0-.927-0.057,4.282,4.282,0,0,0-1.649.243v18.389Zm8.6-1.931a7.815,7.815,0,0,0,11.2,0q1.969-2.365,1.969-7.314,0-4.923-2-7.308a7.674,7.674,0,0,0-11.139.019q-2,2.4-2,7.289Q405.246,101.786,407.208,104.151Zm1.847-10.729a5.436,5.436,0,0,1,.838-2.136,3.172,3.172,0,0,1,1.255-1.061,4.1,4.1,0,0,1,1.658-.307,4.643,4.643,0,0,1,1.376.186,2.991,2.991,0,0,1,1.114.652,3.482,3.482,0,0,1,.851,1.24,8.282,8.282,0,0,1,.519,1.988,19.239,19.239,0,0,1,.185,2.852,17.806,17.806,0,0,1-.275,3.4,5.35,5.35,0,0,1-.832,2.135,3.148,3.148,0,0,1-1.255,1.062,4.158,4.158,0,0,1-1.683.307,4.488,4.488,0,0,1-1.344-.185,2.963,2.963,0,0,1-1.108-.659,3.644,3.644,0,0,1-.857-1.241,8.1,8.1,0,0,1-.532-1.981,18.424,18.424,0,0,1-.191-2.839A17.441,17.441,0,0,1,409.055,93.422Zm14.954,12.66a2.27,2.27,0,0,0,.524.122,5.766,5.766,0,0,0,.844.057,4,4,0,0,0,1.572-.23V96.44a46.478,46.478,0,0,0-.218-4.795h0.1l0.2,0.549q0.2,0.564.626,1.522t0.87,1.778l5.444,10.537,0.23,0.051a4.833,4.833,0,0,0,.729.122,9.819,9.819,0,0,0,1.086.057,6.244,6.244,0,0,0,1.969-.23V87.642l-0.128-.064a2.294,2.294,0,0,0-.524-0.122,6.021,6.021,0,0,0-.869-0.057,3.692,3.692,0,0,0-1.572.243V97.17q0,2.672.217,4.871H435l-0.2-.562q-0.217-.562-0.652-1.548t-0.894-1.816l-5.394-10.473-0.192-.064a4.354,4.354,0,0,0-.7-0.122,9.679,9.679,0,0,0-1.086-.057,6.568,6.568,0,0,0-2.019.243v18.389Z" transform="translate(-251.25 -78)"/>
	</symbol>
</svg>
