<svg xmlns="http://www.w3.org/2000/svg" width="26" height="15" viewBox="0 0 26 15">
  <defs>
    <style>
      .cls-1 {
        fill: #9aaac3;
        fill-rule: evenodd;
      }
    </style>
  </defs>
  <path class="cls-1" d="M868.83,2213a0.878,0.878,0,0,1,.823.93,0.926,0.926,0,0,1-.282.63l-5.281,5.03h22.086a0.9,0.9,0,0,1-.09,1.8h-22l5.281,5.02a0.929,0.929,0,0,1,.11,1.27,0.842,0.842,0,0,1-1.219.11l-0.063-.06-6.92-6.59a0.911,0.911,0,0,1-.048-1.26,0.192,0.192,0,0,1,.048-0.05l6.92-6.59a0.833,0.833,0,0,1,.631-0.24" transform="translate(-861 -2213)"/>
</svg>
