<svg xmlns="http://www.w3.org/2000/svg" width="22" height="22" >
  <defs>
    <style>
      .cls-1 {
        fill: #333;
        fill-rule: evenodd;
      }
    </style>
  </defs>
  <path id="Forma_1" data-name="Forma 1" class="cls-1" d="M497.948,2137.14a0.5,0.5,0,0,0-.511-0.5h-1.782a0.5,0.5,0,0,0-.51.5v1.74a0.5,0.5,0,0,0,.51.5h1.782a0.5,0.5,0,0,0,.511-0.5v-1.74h0Zm4.453,0a0.5,0.5,0,0,0-.51-0.5h-1.782a0.5,0.5,0,0,0-.51.5v1.74a0.5,0.5,0,0,0,.51.5h1.782a0.5,0.5,0,0,0,.51-0.5v-1.74Zm4.454,0a0.5,0.5,0,0,0-.51-0.5h-1.782a0.5,0.5,0,0,0-.511.5v1.74a0.5,0.5,0,0,0,.511.5h1.782a0.5,0.5,0,0,0,.51-0.5v-1.74Zm-8.907,4.35a0.51,0.51,0,0,0-.511-0.5h-1.782a0.509,0.509,0,0,0-.51.5v1.74a0.5,0.5,0,0,0,.51.5h1.782a0.5,0.5,0,0,0,.511-0.5v-1.74h0Zm4.453,0a0.509,0.509,0,0,0-.51-0.5h-1.782a0.509,0.509,0,0,0-.51.5v1.74a0.5,0.5,0,0,0,.51.5h1.782a0.5,0.5,0,0,0,.51-0.5v-1.74Zm4.454,0a0.509,0.509,0,0,0-.51-0.5h-1.782a0.51,0.51,0,0,0-.511.5v1.74a0.5,0.5,0,0,0,.511.5h1.782a0.5,0.5,0,0,0,.51-0.5v-1.74h0Zm3.187-14.04v2.66a2.2,2.2,0,0,1-2.228,2.17h-1.406a2.21,2.21,0,0,1-2.241-2.17v-2.67h-6.334v2.67a2.21,2.21,0,0,1-2.241,2.17h-1.406a2.2,2.2,0,0,1-2.228-2.17v-2.66a2,2,0,0,0-1.958,1.97v15.6a2,2,0,0,0,2.017,1.98h17.966a2.008,2.008,0,0,0,2.017-1.98v-15.6A2,2,0,0,0,510.042,2127.45Zm-0.653,16.59a0.863,0.863,0,0,1-.872.86H493.444a0.863,0.863,0,0,1-.872-0.86v-8.05a0.861,0.861,0,0,1,.872-0.85h15.073a0.861,0.861,0,0,1,.872.85v8.05h0Zm-15.208-13.18h1.39a0.76,0.76,0,0,0,.764-0.75v-4.36a0.753,0.753,0,0,0-.764-0.75h-1.39a0.753,0.753,0,0,0-.764.75v4.36A0.76,0.76,0,0,0,494.181,2130.86Zm12.21,0h1.39a0.76,0.76,0,0,0,.764-0.75v-4.36a0.754,0.754,0,0,0-.764-0.75h-1.39a0.753,0.753,0,0,0-.764.75v4.36A0.76,0.76,0,0,0,506.391,2130.86Z" transform="translate(-490 -2125)"/>
</svg>
