<svg xmlns="http://www.w3.org/2000/svg" width="9" height="19" viewBox="0 0 9 19">
  <defs>
    <style>
      .cls-1 {
        fill: #fff;
        fill-rule: evenodd;
      }
    </style>
  </defs>
  <path id="facebook.svg" class="cls-1" d="M26.969,13.011v3.276c-0.776-.008-2.5-0.134-2.774.3a6.4,6.4,0,0,0-.185,2.639h2.034a3.806,3.806,0,0,1,.956.03c-0.137.78-.107,1.635-0.277,2.4a2.831,2.831,0,0,1-.093.819,2.067,2.067,0,0,1-.74.03H24.01V32H20.4V22.506H18V19.26a2.823,2.823,0,0,1,.709-0.03h1.572a0.175,0.175,0,0,0,.123,0,12.261,12.261,0,0,1,.031-2.275V16.318a8.285,8.285,0,0,1,.37-1.577C21.686,12.781,24.134,13,26.969,13.011Z" transform="translate(-18 -13)"/>
</svg>
