<svg xmlns="http://www.w3.org/2000/svg" width="18" height="18" viewBox="0 0 18 18">
  <defs>
    <style>
      .cls-1 {
        fill: #fff;
        fill-rule: evenodd;
      }
    </style>
  </defs>
  <path id="google-plus.svg" class="cls-1" d="M134.482,14v0.065a1.419,1.419,0,0,0-.368.215c-0.251.154-.508,0.255-0.758,0.409a1.52,1.52,0,0,1-.217.151h-1.472v0.043h0.021a6.121,6.121,0,0,1,.52.43,5.278,5.278,0,0,1,.91,1.549c0.059,0.181.04,0.334,0.086,0.538a2.779,2.779,0,0,1,.044.99c-0.051.234-.045,0.483-0.109,0.71a3.265,3.265,0,0,1-.411.947c-0.465.662-1.161,1.077-1.6,1.721a1.148,1.148,0,0,0-.3.947,2.1,2.1,0,0,0,.931,1.119c0.114,0.084.211,0.217,0.325,0.3a6.587,6.587,0,0,1,1.451,1.42,3.459,3.459,0,0,1,.433.947,3.961,3.961,0,0,1-.086,2.194,4.8,4.8,0,0,1-2.881,2.8,10.9,10.9,0,0,1-1.689.409l-0.411.021a5.44,5.44,0,0,1-1.841,0c-0.439-.1-0.824-0.068-1.212-0.194a3.732,3.732,0,0,1-2.794-2.646,2.977,2.977,0,0,1,.455-2.044c0.986-1.608,3.262-2.348,5.847-2.367V24.628a1.3,1.3,0,0,1-.26-0.387,1.961,1.961,0,0,1-.412-1.463l0.217-.645h-0.217a1.625,1.625,0,0,1-.584.021,4.02,4.02,0,0,1-1.451-.237,3.7,3.7,0,0,1-2.317-2.56,3.891,3.891,0,0,1,0-1.915,4.755,4.755,0,0,1,3.27-3.184A10.867,10.867,0,0,1,130.584,14h3.9Zm2.837,0.108h1.191v2.474H141v1.2h-2.49v2.474h-1.191a0.287,0.287,0,0,1-.022-0.086,1.875,1.875,0,0,0,.022-0.667v-1.7a3.17,3.17,0,0,0-.8-0.021h-1.689a5.215,5.215,0,0,1-.021-1.2h2.49V16.539a1.875,1.875,0,0,0,.022-0.667V14.108Zm-9.074.667a1.389,1.389,0,0,1-.3.043l-0.52.172a2.3,2.3,0,0,0-1.1,1.42,3.792,3.792,0,0,0,.022,1.893,4.577,4.577,0,0,0,1.884,2.99,2.151,2.151,0,0,0,1.45.194,1.9,1.9,0,0,0,1.5-1.4c0.079-.268,0-0.553.065-0.86a1.763,1.763,0,0,0,0-.581c-0.036-.229-0.073-0.459-0.109-0.688C130.731,16.489,130.09,14.778,128.245,14.775Zm0.78,10.521a1.313,1.313,0,0,1-.282.021l-0.714.107a6.2,6.2,0,0,0-1.928.689,2.463,2.463,0,0,0-.909,2.9,3.269,3.269,0,0,0,1.841,1.635,7.569,7.569,0,0,0,1.1.28,4.571,4.571,0,0,0,1.581.021c0.309-.068.57-0.04,0.844-0.129a2.742,2.742,0,0,0,1.863-1.549,3.061,3.061,0,0,0,.108-0.43,2.211,2.211,0,0,0-.087-1.076,3.622,3.622,0,0,0-1.581-1.807,2.174,2.174,0,0,0-1.061-.645A3.05,3.05,0,0,0,129.025,25.3Z" transform="translate(-123 -14)"/>
</svg>
