<svg xmlns="http://www.w3.org/2000/svg" width="72" height="72" viewBox="0 0 72 72">
  <defs>
    <style>
      .cls-1 {
        fill: #333;
        fill-rule: evenodd;
      }
    </style>
  </defs>
  <path id="helpful4.svg" class="cls-1" d="M1509,4736.15a30.845,30.845,0,1,0,30.84,30.85A30.886,30.886,0,0,0,1509,4736.15Zm26.99,21.91h-1.9a3.786,3.786,0,0,0-1.69.4l-0.7.35a1.4,1.4,0,0,1-1.37-.09l-2.62-1.75a1.224,1.224,0,0,0-.67-0.2h-0.32l0.89-1.34a0.243,0.243,0,0,1,.2-0.11h1.88v0.52a1.21,1.21,0,0,0,2.4.22l0.44,0.22a3.279,3.279,0,0,0,1.41.33h1.52C1535.65,4757.09,1535.82,4757.57,1535.99,4758.06Zm-9.03-11.15a0.076,0.076,0,0,1,.02-0.05l0.91-.91c0.03-.03.06-0.07,0.09-0.1,0.53,0.48,1.04.98,1.54,1.49l-0.76.76a1.209,1.209,0,1,0,1.71,1.71l0.65-.65a28.259,28.259,0,0,1,3.25,5.03h-0.43a0.725,0.725,0,0,1-.33-0.07l-1.86-.94a2.736,2.736,0,0,0-1.19-.28h-2.75a2.668,2.668,0,0,0-2.21,1.19l-1.79,2.68h-1.12a0.892,0.892,0,0,1-.89-0.89v-2.13a0.086,0.086,0,0,1,.06-0.07l2.36-.79a4.1,4.1,0,0,0,1.56-.97,3.972,3.972,0,0,0,1.18-2.83v-2.18h0Zm-36.94-1.06c0.03,0.03.05,0.07,0.08,0.1l1.29,1.29a1.254,1.254,0,0,0,.86.35,1.212,1.212,0,0,0,.85-0.35l1.82-1.83a1.37,1.37,0,0,1,.97-0.4h1.59v0.08a1.2,1.2,0,0,0,1.75,1.08l2.11-1.05a1,1,0,0,1,.45-0.11h4.31a2.08,2.08,0,0,0-.01,3.46l1.66,1.11a0.075,0.075,0,0,1,.04.07v0.6a0.086,0.086,0,0,1-.08.08h-0.56a2.958,2.958,0,0,0-2.1.87l-8.13,8.12a0.055,0.055,0,0,1-.05.03h-2.05a3.783,3.783,0,0,0-3.78,3.78v0.59l-1.34-.27a1.021,1.021,0,0,1-.73-0.56l-0.8-1.59a1.2,1.2,0,0,0-1.08-.67h-0.72a1.367,1.367,0,0,1-1.3-.93l-1.68-5.05A28.721,28.721,0,0,1,1490.02,4745.85Zm18.98,49.58a28.464,28.464,0,0,1-28.43-28.43,28.174,28.174,0,0,1,1.43-8.9l0.78,2.36a3.794,3.794,0,0,0,3.57,2.59l0.46,0.92a3.414,3.414,0,0,0,2.42,1.85l4.6,0.92a1.269,1.269,0,0,1,.68.37,3.774,3.774,0,0,0,1.3.84l-0.84,2.53a1.217,1.217,0,0,0-.07.38v2.58a3.813,3.813,0,0,0,1.52,3.03l3.09,2.32a1.364,1.364,0,0,1,.55,1.09v6.95a3.806,3.806,0,0,0,.63,2.1l1.86,2.79a2.17,2.17,0,0,0,1.81.97h0.45a1.536,1.536,0,0,0,1.53-1.53v-2.21a2.012,2.012,0,0,1,.59-1.43l2.38-2.38a4.272,4.272,0,0,0,1.07-1.73l0.76-2.26a0.076,0.076,0,0,1,.08-0.06h0.64a2.493,2.493,0,0,0,2.42-1.89l0.87-3.47a2.5,2.5,0,0,0-.66-2.37l-1.68-1.69a2.488,2.488,0,0,0-1.77-.73h-1.54l-4.42-4.42a2.505,2.505,0,0,0-1.77-.73h-6.14a1.339,1.339,0,0,1-.95-0.39,3.736,3.736,0,0,0-1.91-1.03l-0.85-.17v-1.07a1.37,1.37,0,0,1,1.36-1.37h1.37v0.08a1.21,1.21,0,1,0,2.42,0v-0.79a0.022,0.022,0,0,0,.02-0.02l8.13-8.12a0.522,0.522,0,0,1,.39-0.17h0.56a2.5,2.5,0,0,0,2.5-2.49v-0.6a2.485,2.485,0,0,0-1.12-2.08l-1.02-.68,1.96-.49a1.929,1.929,0,0,0-.47-3.8h-7.77a3.375,3.375,0,0,0-1.53.36l-0.8.4a2,2,0,0,0-1.58-.76h-1.99a3.751,3.751,0,0,0-2.67,1.1l-0.97.97-0.36-.36a28.371,28.371,0,0,1,34.22,0l-0.84.84a2.482,2.482,0,0,0-.73,1.76v2.18a1.583,1.583,0,0,1-.47,1.12,1.556,1.556,0,0,1-.62.39l-2.36.78a2.5,2.5,0,0,0-1.7,2.37v2.13a3.362,3.362,0,0,0,.45,1.67,4.544,4.544,0,0,0-1.25,1.26l-1.14,1.71a3.76,3.76,0,0,0-.64,2.1v2.31a3.76,3.76,0,0,0,.64,2.1l1.37,2.07a3.806,3.806,0,0,0,3.15,1.68h3.21a1.376,1.376,0,0,1,1.3.94l0.29,0.86a6.943,6.943,0,0,1,.35,2.17v0.91a13.024,13.024,0,0,0,.5,3.56l2.07,7.25A28.366,28.366,0,0,1,1509,4795.43Zm-8.04-18.58-3.09-2.32a1.364,1.364,0,0,1-.55-1.09v-2.38l0.95-2.85h5.04a0.073,0.073,0,0,1,.06.02l4.77,4.78a1.254,1.254,0,0,0,.86.35h2.04a0.142,0.142,0,0,1,.06.02l1.68,1.69a0.066,0.066,0,0,1,.02.07l-0.86,3.47a0.084,0.084,0,0,1-.08.06h-0.64a2.5,2.5,0,0,0-2.37,1.71l-0.76,2.26a2,2,0,0,1-.48.79l-2.39,2.39a4.42,4.42,0,0,0-1.3,3.13v0.47l-1.22-1.83a1.359,1.359,0,0,1-.23-0.76v-6.95A3.789,3.789,0,0,0,1500.96,4776.85Zm28.98,1.71a10.581,10.581,0,0,1-.41-2.9v-0.91a9.36,9.36,0,0,0-.47-2.93l-0.29-.87a3.778,3.778,0,0,0-3.59-2.58h-3.21a1.361,1.361,0,0,1-1.13-.61l-1.38-2.07a1.384,1.384,0,0,1-.23-0.76v-2.31a1.384,1.384,0,0,1,.23-0.76l1.14-1.71a2.181,2.181,0,0,1,1.81-.97h4.26l2.32,1.55a3.808,3.808,0,0,0,3.79.24l0.7-.35a1.31,1.31,0,0,1,.61-0.15h2.58a28.672,28.672,0,0,1,.76,6.53,28.306,28.306,0,0,1-5.86,17.26Zm-44.55-36.89a0.01,0.01,0,0,1-.01-0.01,1.213,1.213,0,1,0-1.72,1.71c0,0.01.01,0.01,0.01,0.02a1.256,1.256,0,0,0,.85.34,1.232,1.232,0,0,0,.84-0.34l0.03-.03A1.227,1.227,0,0,0,1485.39,4741.67Zm-0.87-5.52a6.378,6.378,0,0,0-6.37,6.36,1.21,1.21,0,0,0,2.42,0,3.95,3.95,0,0,1,3.95-3.94A1.21,1.21,0,0,0,1484.52,4736.15Zm0-5.15a11.527,11.527,0,0,0-11.52,11.51,1.21,1.21,0,0,0,2.42,0,9.114,9.114,0,0,1,9.1-9.1A1.205,1.205,0,0,0,1484.52,4731Zm49.82,59.62-0.01-.01a1.227,1.227,0,0,0-1.69,0l-0.03.03a1.227,1.227,0,0,0,0,1.69c0.01,0,.01.01,0.02,0.01a1.219,1.219,0,0,0,1.71,0A1.225,1.225,0,0,0,1534.34,4790.62Zm4.3-.35a1.214,1.214,0,0,0-1.21,1.21,3.952,3.952,0,0,1-3.95,3.95,1.205,1.205,0,0,0,0,2.41,6.372,6.372,0,0,0,6.37-6.36A1.214,1.214,0,0,0,1538.64,4790.27Zm5.15,0a1.214,1.214,0,0,0-1.21,1.21,9.107,9.107,0,0,1-9.1,9.1,1.21,1.21,0,0,0,0,2.42,11.536,11.536,0,0,0,11.52-11.52A1.208,1.208,0,0,0,1543.79,4790.27Zm-40.15-43.14a1.205,1.205,0,0,0-1.62-.54l-2.58,1.29a1.2,1.2,0,0,0-.54,1.62,1.216,1.216,0,0,0,1.08.67,1.3,1.3,0,0,0,.54-0.13l2.58-1.29A1.22,1.22,0,0,0,1503.64,4747.13Zm18.24-1.96a1.206,1.206,0,0,0-1.2,1.21v1.29a1.205,1.205,0,1,0,2.41,0v-1.29A1.208,1.208,0,0,0,1521.88,4745.17Z" transform="translate(-1473 -4731)"/>
</svg>
