<svg xmlns="http://www.w3.org/2000/svg" width="63" height="56" viewBox="0 0 63 56">
  <defs>
    <style>
      .cls-1 {
        fill: #333;
        fill-rule: evenodd;
      }
    </style>
  </defs>
  <path id="helpful2.svg" class="cls-1" d="M332.463,4739H280.537a5.539,5.539,0,0,0-5.537,5.53v34.23a5.548,5.548,0,0,0,5.537,5.54h18.641v7.01H296.4a1.845,1.845,0,1,0,0,3.69h20.2a1.845,1.845,0,1,0,0-3.69h-2.779v-7.01h18.641a5.548,5.548,0,0,0,5.537-5.54v-34.23A5.539,5.539,0,0,0,332.463,4739Zm-22.333,52.31h-7.261v-7.01h7.261v7.01Zm24.178-12.55a1.85,1.85,0,0,1-1.845,1.85H280.537a1.85,1.85,0,0,1-1.846-1.85v-2.8h55.617v2.8Zm0-6.49H278.691v-27.74a1.848,1.848,0,0,1,1.846-1.84h51.926a1.848,1.848,0,0,1,1.845,1.84v27.74Zm-5.714-21.93H312.463a1.845,1.845,0,1,0,0,3.69h16.131A1.845,1.845,0,1,0,328.594,4750.34Zm0,5.77H312.463a1.845,1.845,0,1,0,0,3.69h16.131A1.845,1.845,0,1,0,328.594,4756.11Zm0,5.77H312.463a1.845,1.845,0,1,0,0,3.69h16.131A1.845,1.845,0,1,0,328.594,4761.88Zm-23.7-12.1H284.4a1.846,1.846,0,0,0-1.845,1.84v12.67a1.84,1.84,0,0,0,1.845,1.84h20.484a1.84,1.84,0,0,0,1.846-1.84v-12.67A1.847,1.847,0,0,0,304.889,4749.78Zm-1.845,12.66H286.251v-8.97h16.793v8.97h0Z" transform="translate(-275 -4739)"/>
</svg>
