<svg xmlns="http://www.w3.org/2000/svg" width="68" height="52" viewBox="0 0 68 52">
  <defs>
    <style>
      .cls-1 {
        fill: #333;
        fill-rule: evenodd;
      }
    </style>
  </defs>
  <path id="helpful1.svg" class="cls-1" d="M340.008,4416h-5.977a2,2,0,0,0,0,4h5.977A2,2,0,0,0,340.008,4416Zm-2.576,12.58-3.984-4a2,2,0,1,0-2.818,2.83l3.985,4A2,2,0,0,0,337.432,4428.58Zm0-24a1.989,1.989,0,0,0-2.818,0l-3.984,4a2,2,0,1,0,2.818,2.83l3.984-4A2.007,2.007,0,0,0,337.432,4404.58ZM320.086,4392a5.994,5.994,0,0,0-5.91,5.1l-1.817,1.83A17.925,17.925,0,0,1,299.9,4404H287.945a5.986,5.986,0,0,0-5.634,4h-0.342a8,8,0,0,0,0,16h0.342a6,6,0,0,0,3.642,3.65V4438a5.977,5.977,0,1,0,11.953,0v-10H299.9a17.881,17.881,0,0,1,12.461,5.07l1.817,1.82a5.974,5.974,0,0,0,11.886-.89v-36A5.994,5.994,0,0,0,320.086,4392Zm-38.117,28a4,4,0,0,1,0-8v8Zm11.953,18a1.993,1.993,0,1,1-3.985,0v-10h3.985v10Zm3.984-14h-9.961a2,2,0,0,1-1.992-2v-12a2,2,0,0,1,1.992-2h9.961v16Zm16.2,5.24a21.724,21.724,0,0,0-12.232-5.15v-16.18a21.736,21.736,0,0,0,12.232-5.16v26.49Zm7.969,4.76a2,2,0,0,1-1.992,2h0a2,2,0,0,1-1.992-2v-36a1.992,1.992,0,1,1,3.984,0v36Z" transform="translate(-274 -4392)"/>
</svg>
