<svg xmlns="http://www.w3.org/2000/svg" width="154" height="154" >
  <defs>
    <style>
      .cls-1 {
        fill: #fff;
        fill-rule: evenodd;
      }
    </style>
  </defs>
  <path id="Forma_1_copy_5" data-name="Forma 1 copy 5" class="cls-1" d="M1012.45,3743.58A76.68,76.68,0,0,0,958.005,3721h-0.123A77.011,77.011,0,0,0,909,3738.52a3.135,3.135,0,1,0,3.986,4.84,70.716,70.716,0,0,1,44.9-16.09H958a70.543,70.543,0,1,1-66.583,46.72,3.134,3.134,0,1,0-5.9-2.12A77.034,77.034,0,1,0,1012.45,3743.58Zm-31.791,1.96A57.136,57.136,0,1,0,1015.12,3798a3.137,3.137,0,0,0-3.13-3.14h-11.46a3.135,3.135,0,0,0,0,6.27h8.23a50.942,50.942,0,0,1-47.626,47.63v-8.23a3.134,3.134,0,1,0-6.267,0v8.23a50.942,50.942,0,0,1-47.624-47.63h8.228a3.135,3.135,0,0,0,0-6.27h-8.228a50.924,50.924,0,0,1,47.624-47.62v8.23a3.134,3.134,0,0,0,6.267,0v-8.23a50.349,50.349,0,0,1,17.038,4.06A3.137,3.137,0,0,0,980.659,3745.54Zm-1.418,26.17-27.735,11.24a16.035,16.035,0,0,0-9.131,8.55,3.434,3.434,0,0,0-.211.42l-11.486,28.36a3.136,3.136,0,0,0,2.9,4.31,3.217,3.217,0,0,0,1.176-.23l28.358-11.48a4.32,4.32,0,0,0,.39-0.2,16.035,16.035,0,0,0,8.3-8.46c0.009-.03.022-0.04,0.031-0.07l11.482-28.36A3.134,3.134,0,0,0,979.241,3771.71Zm-22.215,16.53a9.77,9.77,0,1,1-6.907,2.86,9.826,9.826,0,0,1,3.078-2.08c0.013,0,.027-0.01.041-0.01l0.225-.09A9.738,9.738,0,0,1,957.026,3788.24Zm-13.844,17.86a16.193,16.193,0,0,0,2.5,3.25,16.411,16.411,0,0,0,3.245,2.51l-9.666,3.91Zm27.672-16.21a16.153,16.153,0,0,0-2.489-3.22,15.819,15.819,0,0,0-3.21-2.49l9.58-3.88Z" transform="translate(-881 -3721)"/>
</svg>
