<svg xmlns="http://www.w3.org/2000/svg" width="18.031" height="18" viewBox="0 0 18.031 18">
  <defs>
    <style>
      .cls-1 {
        fill: #fff;
        fill-rule: evenodd;
      }
    </style>
  </defs>
  <path id="instagram.svg" class="cls-1" d="M238.738,14h6.754a10.659,10.659,0,0,1,3.763.337,4.7,4.7,0,0,1,2.7,3.565v1.927h-6.078a4.15,4.15,0,0,0-4.149-1.06,5.557,5.557,0,0,0-1.351.723l-0.289.337h-6.078V17.907A4.459,4.459,0,0,1,235.8,14.92v3.758h0.965V14.342h0.049V14.294a9.866,9.866,0,0,0,.964-0.241v4.625h0.965V14Zm8.539,2.264a1.063,1.063,0,0,0-.29.289,7.108,7.108,0,0,0,.049,1.975,1.233,1.233,0,0,1,.241.193,9.279,9.279,0,0,0,2.026-.1,4.684,4.684,0,0,0,.1-2.168,1.233,1.233,0,0,1-.241-0.193h-1.881Zm-4.535,3.951a2.556,2.556,0,0,1,2.557,3.565,2.735,2.735,0,0,1-1.881,1.445,2.564,2.564,0,0,1-2.8-3.421,2.742,2.742,0,0,1,1.35-1.4A5.724,5.724,0,0,0,242.742,20.219Zm-8.731,1.012h5.113c-0.064.436-.2,0.907-0.289,1.4a2.4,2.4,0,0,0,.1.771,4.3,4.3,0,0,0,1.978,2.939,4.638,4.638,0,0,0,1.11.434,4.148,4.148,0,0,0,2.508-.241c2.082-.879,2.949-2.613,2.316-5.3h5.113v4.721a10.6,10.6,0,0,1-.048,2.361,5.78,5.78,0,0,1-.917,1.975,4.805,4.805,0,0,1-2.653,1.59,10.674,10.674,0,0,1-2.315.048H241.3c-2.573,0-4.144.15-5.644-.963a4.822,4.822,0,0,1-1.592-2.65,10.661,10.661,0,0,1-.048-2.361V21.231Z" transform="translate(-233.969 -14)"/>
</svg>
