<svg xmlns="http://www.w3.org/2000/svg" width="11" height="16" viewBox="0 0 11 16">
  <defs>
    <style>
      .cls-1 {
        fill: #fff;
        fill-rule: evenodd;
      }
    </style>
  </defs>
  <path id="location.svg" class="cls-1" d="M1156.74,41.982a4.768,4.768,0,0,0-.26-0.64A5.466,5.466,0,0,0,1146,42.963v0.683c0,0.029.01,0.284,0.02,0.411,0.2,1.593,1.46,3.286,2.39,4.879,1.01,1.707,2.06,3.385,3.09,5.064,0.64-1.1,1.28-2.2,1.9-3.271,0.17-.313.37-0.626,0.54-0.924,0.11-.2.33-0.4,0.43-0.584,1.01-1.849,2.63-3.712,2.63-5.546V42.919A6.071,6.071,0,0,0,1156.74,41.982Zm-5.27,3.427a1.95,1.95,0,0,1-1.87-1.337,1.713,1.713,0,0,1-.05-0.5V43.134a1.849,1.849,0,0,1,1.98-1.821,2.006,2.006,0,0,1,2.01,2.048A2.057,2.057,0,0,1,1151.47,45.409Z" transform="translate(-1146 -38)"/>
</svg>
