<svg xmlns="http://www.w3.org/2000/svg" width="78" height="57" viewBox="0 0 78 57">
  <defs>
    <style>
      .cls-1 {
        fill: #ffb900;
        fill-rule: evenodd;
      }
    </style>
  </defs>
  <path id="logo-el.svg" class="cls-1" d="M366.006,39.16A28.8,28.8,0,0,1,357.992,59.2,27.26,27.26,0,0,1,338.2,67.7c-0.04-3.9-.064-7.8-0.109-11.71A16.3,16.3,0,0,0,350.2,50.38a17.371,17.371,0,0,0,4.226-11.133c3.861-.012,7.722-0.069,11.577-0.088M348.862,11c0.034,3.908.074,7.814,0.1,11.721a16.68,16.68,0,0,0-14.99,10.371c-1.877,4.207-.73,8.958-1.992,13.317C329.253,58.735,317.508,68.234,305.013,68c-0.046-3.906-.069-7.808-0.11-11.714a16.538,16.538,0,0,0,14.719-9.56,17.9,17.9,0,0,0,1.579-7.552A28.034,28.034,0,0,1,348.862,11m-33.2.3c0.045,3.906.074,7.814,0.109,11.715A16.649,16.649,0,0,0,299.558,39.9L288,40a28.223,28.223,0,0,1,10.9-22.847A27.9,27.9,0,0,1,315.66,11.3h0Z" transform="translate(-288 -11)"/>
</svg>
