<svg xmlns="http://www.w3.org/2000/svg" width="12.375" height="13.188" viewBox="0 0 12.375 13.188">
  <defs>
    <style>
      .cls-1 {
        fill: #fff;
        fill-rule: evenodd;
      }
    </style>
  </defs>
  <path id="phone.svg" class="cls-1" d="M756.692,48.082c-0.8-.679-1.616-1.09-2.409-0.411l-0.472.41c-0.347.3-.99,1.688-3.479-1.147s-1.008-3.273-.661-3.568l0.476-.41c0.788-.681.491-1.538-0.078-2.419L749.726,40c-0.571-.879-1.193-1.457-1.983-0.778l-0.427.369a3.973,3.973,0,0,0-1.563,2.628c-0.285,1.867.615,4.006,2.674,6.353s4.072,3.527,5.98,3.507a4.034,4.034,0,0,0,2.843-1.166l0.428-.37c0.788-.679.3-1.37-0.5-2.05Z" transform="translate(-745.719 -38.906)"/>
</svg>
