<svg xmlns="http://www.w3.org/2000/svg" width="70" height="56" viewBox="0 0 70 56">
  <defs>
    <style>
      .cls-1 {
        fill: #ffb900;
        fill-rule: evenodd;
      }
    </style>
  </defs>
  <path id="_" data-name="“" class="cls-1" d="M491.911,1232.42a32.877,32.877,0,0,0-6.755,20.29q0,9.735,4.965,15.51t11.8,5.79a13.321,13.321,0,0,0,9.97-4.28,13.853,13.853,0,0,0,4.11-9.89,13.244,13.244,0,0,0-3.581-9.27,11.231,11.231,0,0,0-14.812-1.97,2.543,2.543,0,0,1-1.221.59,0.908,0.908,0,0,1-.733-0.5,4.452,4.452,0,0,1-.488-2.35,24.358,24.358,0,0,1,4.8-14.21,27.572,27.572,0,0,1,13.266-10.02V1218Q498.665,1223.445,491.911,1232.42Zm-39.147,0a32.877,32.877,0,0,0-6.755,20.29q0,9.735,4.964,15.51t11.8,5.79a13.324,13.324,0,0,0,9.97-4.28,13.853,13.853,0,0,0,4.11-9.89,13.244,13.244,0,0,0-3.581-9.27,11.232,11.232,0,0,0-14.813-1.97,2.543,2.543,0,0,1-1.221.59,0.908,0.908,0,0,1-.732-0.5,4.441,4.441,0,0,1-.489-2.35,24.353,24.353,0,0,1,4.8-14.21,27.567,27.567,0,0,1,13.266-10.02V1218Q459.517,1223.445,452.764,1232.42Z" transform="translate(-446 -1218)"/>
</svg>
