<svg xmlns="http://www.w3.org/2000/svg" width="19" height="16" viewBox="0 0 19 16">
  <defs>
    <style>
      .cls-1 {
        fill: #fff;
        fill-rule: evenodd;
      }
    </style>
  </defs>
  <path id="twitter.svg" class="cls-1" d="M70.12,24.716l0.6,0.069a0.7,0.7,0,0,0,.251-0.017h0.267c0.2-.045.416-0.079,0.6-0.12V24.63a2.978,2.978,0,0,1-1.319-.568,3.883,3.883,0,0,1-1.77-3.406h0.033a3.306,3.306,0,0,0,1.686.482V21.121a2.406,2.406,0,0,1-.735-0.688c-0.121-.165-0.274-0.319-0.384-0.5a4.284,4.284,0,0,1-.484-3.045,4.76,4.76,0,0,1,.434-1.1h0.017v0.017a2.162,2.162,0,0,1,.384.465l0.267,0.258a3.368,3.368,0,0,0,.651.637c0.072,0.056.128,0.151,0.2,0.206a11.192,11.192,0,0,0,6.528,2.615V19.968a1.823,1.823,0,0,1-.084-0.568,3.783,3.783,0,0,1,.4-2.133,3.972,3.972,0,0,1,2.421-2.081,3.865,3.865,0,0,1,3.356.636,2.1,2.1,0,0,1,.551.5c0.524-.172,1.034-0.255,1.5-0.465a5.834,5.834,0,0,0,.7-0.344,1.067,1.067,0,0,1,.267-0.155v0.052c-0.11.149-.165,0.464-0.267,0.636a3.84,3.84,0,0,1-1.4,1.5V17.56h0.05l0.751-.138,0.768-.224A4.869,4.869,0,0,1,87,16.941v0.017a2.021,2.021,0,0,0-.284.413,7.186,7.186,0,0,1-.718.809l-0.25.275c-0.152.118-.283,0.265-0.434,0.378a1.614,1.614,0,0,0-.25.172v1.1a3.672,3.672,0,0,0-.05.637L84.83,21.895a13.506,13.506,0,0,1-.384,1.411c-0.166.417-.349,0.845-0.518,1.239a4.9,4.9,0,0,1-.267.585,11.5,11.5,0,0,1-3.773,4.146,9.049,9.049,0,0,1-1.152.671c-0.456.207-.93,0.383-1.419,0.551-0.216.074-.408,0.089-0.634,0.155-0.464.135-.995,0.156-1.5,0.275-0.25.059-.491-0.023-0.751,0.034a3.846,3.846,0,0,1-1.2-.017l-0.4-.017c-0.235-.055-0.494-0.039-0.735-0.1-0.409-.109-0.844-0.182-1.219-0.31a10.343,10.343,0,0,1-2.221-.946,2.713,2.713,0,0,1-.651-0.4h0.134a1.869,1.869,0,0,0,.517.034,3.533,3.533,0,0,0,1.2-.052c0.279-.067.524-0.044,0.785-0.12a12.593,12.593,0,0,0,1.686-.6,6.577,6.577,0,0,0,1.085-.654,3.153,3.153,0,0,1,.334-0.258V27.5H73.526a2.088,2.088,0,0,0-.484-0.069,5.125,5.125,0,0,1-.668-0.207,4.01,4.01,0,0,1-1.887-1.686A2.3,2.3,0,0,1,70.12,24.716Z" transform="translate(-68 -15)"/>
</svg>
