<svg xmlns="http://www.w3.org/2000/svg" width="22" height="13" viewBox="0 0 22 13">
  <defs>
    <style>
      .cls-1 {
        fill: #333;
        fill-rule: evenodd;
      }
    </style>
  </defs>
  <path id="Forma_1" data-name="Forma 1" class="cls-1" d="M626,2130c-7.217,0-11,5.61-11,6.5s3.783,6.5,11,6.5,11-5.61,11-6.5S633.216,2130,626,2130Zm0,11.5a5,5,0,1,1,4.889-5A4.946,4.946,0,0,1,626,2141.5Zm0-5c-0.448-.52.73-2.5,0-2.5a2.5,2.5,0,1,0,2.444,2.5C628.444,2135.87,626.381,2136.94,626,2136.5Z" transform="translate(-615 -2130)"/>
</svg>
