<svg xmlns="http://www.w3.org/2000/svg" width="19" height="11" viewBox="0 0 19 11">
  <defs>
    <style>
      .cls-1 {
        fill: #fff;
        fill-rule: evenodd;
      }
    </style>
  </defs>
  <path id="vkontakte.svg" class="cls-1" d="M185.008,17c1.075,0,2.842-.1,3.119.677,0.452,1.268-.853,4.541.594,4.739a14.659,14.659,0,0,0,2.228-3.16c0.236-.46.337-1.378,0.817-1.58,0.487-.383,3.49-0.144,4.085,0a2.471,2.471,0,0,1,.075.752c-0.381.491-.541,1.147-0.892,1.655-0.624.9-2.116,2.121-2.153,3.461,0.82,0.774,3.082,2.792,3.119,4.138a3.224,3.224,0,0,1-1.783.3h-2.228a4.348,4.348,0,0,1-2.079-1.881,8.132,8.132,0,0,0-.817-0.6,2.505,2.505,0,0,0-.595.075,5.358,5.358,0,0,0-.445,2.106,1.865,1.865,0,0,0-.372.3,11.006,11.006,0,0,1-3.268-.226c-2.7-.9-4.348-3.61-5.644-5.943l-1.56-3.084c-0.162-.324-0.377-0.836,0-1.053,0.47-.372,3.008-0.135,3.565,0,0.629,1.168,1.838,4.562,3.194,4.739a5.1,5.1,0,0,0,.3-3.912c-0.209-.409-0.844-0.456-0.966-0.9l0.966-.451A3.241,3.241,0,0,0,185.008,17Z" transform="translate(-177 -17)"/>
</svg>
